<svg width="969" height="242" viewBox="0 0 969 242" fill="none" xmlns="http://www.w3.org/2000/svg">
<g filter="url(#filter0_f_201_436)">
<ellipse cx="484.5" cy="121" rx="387.5" ry="24" fill="#C4C4C4"/>
</g>
<line x1="596" y1="59.5" x2="813" y2="59.5" stroke="white"/>
<line x1="596" y1="59.5" x2="813" y2="59.5" stroke="white"/>
<line x1="596" y1="59.5" x2="813" y2="59.5" stroke="white"/>
<line x1="596" y1="59.5" x2="813" y2="59.5" stroke="white"/>
<line x1="121" y1="61.5" x2="329" y2="61.5" stroke="white"/>
<line x1="121" y1="61.5" x2="329" y2="61.5" stroke="white"/>
<line x1="121" y1="61.5" x2="329" y2="61.5" stroke="white"/>
<line x1="121" y1="61.5" x2="329" y2="61.5" stroke="white"/>
<path d="M267.624 45.424C267.72 45.424 267.768 45.52 267.768 45.712C267.768 45.904 267.72 46 267.624 46C266.632 46 265.848 45.984 265.272 45.952L261.96 45.904L258.888 45.952C258.376 45.984 257.656 46 256.728 46C256.664 46 256.632 45.904 256.632 45.712C256.632 45.52 256.664 45.424 256.728 45.424C257.816 45.424 258.616 45.344 259.128 45.184C259.672 44.992 260.024 44.672 260.184 44.224C260.376 43.776 260.44 43.072 260.376 42.112L259.512 20.272L248.568 45.664C248.504 45.792 248.376 45.856 248.184 45.856C248.024 45.856 247.88 45.792 247.752 45.664L235.944 20.56L235.512 40.768C235.48 42.464 235.768 43.664 236.376 44.368C236.984 45.072 238.056 45.424 239.592 45.424C239.656 45.424 239.688 45.52 239.688 45.712C239.688 45.904 239.656 46 239.592 46C238.696 46 238.008 45.984 237.528 45.952L234.936 45.904L232.44 45.952C231.992 45.984 231.352 46 230.52 46C230.456 46 230.424 45.904 230.424 45.712C230.424 45.52 230.456 45.424 230.52 45.424C231.864 45.424 232.824 45.072 233.4 44.368C234.008 43.632 234.328 42.432 234.36 40.768L234.792 18.496C233.832 17.216 232.52 16.576 230.856 16.576C230.792 16.576 230.76 16.48 230.76 16.288C230.76 16.096 230.792 16 230.856 16L232.632 16.048C232.952 16.08 233.4 16.096 233.976 16.096C234.552 16.096 235.032 16.08 235.416 16.048C235.832 16.016 236.152 16 236.376 16C236.792 16 237.128 16.16 237.384 16.48C237.672 16.768 238.072 17.44 238.584 18.496L249.288 41.056L259.752 17.2C260.104 16.4 260.584 16 261.192 16C261.352 16 261.576 16.016 261.864 16.048C262.184 16.08 262.6 16.096 263.112 16.096L265.368 16.048C265.72 16.016 266.248 16 266.952 16C267.048 16 267.096 16.096 267.096 16.288C267.096 16.48 267.048 16.576 266.952 16.576C265.352 16.576 264.2 16.816 263.496 17.296C262.824 17.744 262.504 18.608 262.536 19.888L263.496 42.112C263.528 43.104 263.64 43.824 263.832 44.272C264.056 44.72 264.44 45.024 264.984 45.184C265.528 45.344 266.408 45.424 267.624 45.424ZM295.461 45.424C295.589 45.424 295.653 45.52 295.653 45.712C295.653 45.904 295.589 46 295.461 46C294.885 46 293.957 45.968 292.677 45.904C291.397 45.84 290.469 45.808 289.893 45.808C289.381 45.808 288.709 45.84 287.877 45.904C287.045 45.968 286.405 46 285.957 46C285.829 46 285.765 45.904 285.765 45.712C285.765 45.52 285.829 45.424 285.957 45.424C286.789 45.424 287.397 45.328 287.781 45.136C288.197 44.912 288.405 44.528 288.405 43.984C288.405 43.504 288.213 42.832 287.829 41.968L284.565 34.96H277.845L275.781 40.096C275.269 41.312 275.013 42.32 275.013 43.12C275.013 43.952 275.301 44.544 275.877 44.896C276.453 45.248 277.333 45.424 278.517 45.424C278.677 45.424 278.757 45.52 278.757 45.712C278.757 45.904 278.677 46 278.517 46C278.037 46 277.381 45.968 276.549 45.904C275.653 45.84 274.821 45.808 274.053 45.808C273.253 45.808 272.309 45.84 271.221 45.904C270.261 45.968 269.493 46 268.917 46C268.757 46 268.677 45.904 268.677 45.712C268.677 45.52 268.757 45.424 268.917 45.424C269.909 45.424 270.693 45.296 271.269 45.04C271.845 44.752 272.373 44.208 272.853 43.408C273.365 42.608 273.973 41.36 274.677 39.664L281.589 22.816C281.653 22.688 281.749 22.624 281.877 22.624C282.005 22.624 282.085 22.688 282.117 22.816L289.845 39.424C290.677 41.216 291.333 42.512 291.813 43.312C292.325 44.112 292.837 44.672 293.349 44.992C293.893 45.28 294.597 45.424 295.461 45.424ZM278.181 34.096H284.181L280.965 27.184L278.181 34.096ZM297.266 46C297.202 46 297.17 45.904 297.17 45.712C297.17 45.52 297.202 45.424 297.266 45.424C298.322 45.424 299.09 45.344 299.57 45.184C300.05 45.024 300.37 44.72 300.53 44.272C300.722 43.792 300.818 43.072 300.818 42.112V27.424C300.818 26.464 300.722 25.76 300.53 25.312C300.37 24.864 300.05 24.56 299.57 24.4C299.09 24.208 298.322 24.112 297.266 24.112C297.202 24.112 297.17 24.016 297.17 23.824C297.17 23.632 297.202 23.536 297.266 23.536H314.546C314.866 23.536 315.026 23.664 315.026 23.92V27.664V29.536C315.026 29.632 314.93 29.68 314.738 29.68C314.546 29.68 314.45 29.632 314.45 29.536C314.29 27.968 313.746 26.736 312.818 25.84C311.922 24.912 310.77 24.448 309.362 24.448H307.538C306.418 24.448 305.602 24.528 305.09 24.688C304.578 24.848 304.226 25.136 304.034 25.552C303.842 25.968 303.746 26.608 303.746 27.472V41.92C303.746 42.944 303.858 43.696 304.082 44.176C304.306 44.624 304.738 44.944 305.378 45.136C306.05 45.328 307.09 45.424 308.498 45.424C308.594 45.424 308.642 45.52 308.642 45.712C308.642 45.904 308.594 46 308.498 46C307.346 46 306.466 45.984 305.858 45.952L302.258 45.904L299.666 45.952C299.122 45.984 298.322 46 297.266 46ZM341.211 45.424C341.339 45.424 341.403 45.52 341.403 45.712C341.403 45.904 341.339 46 341.211 46C340.635 46 339.707 45.968 338.427 45.904C337.147 45.84 336.219 45.808 335.643 45.808C335.131 45.808 334.459 45.84 333.627 45.904C332.795 45.968 332.155 46 331.707 46C331.579 46 331.515 45.904 331.515 45.712C331.515 45.52 331.579 45.424 331.707 45.424C332.539 45.424 333.147 45.328 333.531 45.136C333.947 44.912 334.155 44.528 334.155 43.984C334.155 43.504 333.963 42.832 333.579 41.968L330.315 34.96H323.595L321.531 40.096C321.019 41.312 320.763 42.32 320.763 43.12C320.763 43.952 321.051 44.544 321.627 44.896C322.203 45.248 323.083 45.424 324.267 45.424C324.427 45.424 324.507 45.52 324.507 45.712C324.507 45.904 324.427 46 324.267 46C323.787 46 323.131 45.968 322.299 45.904C321.403 45.84 320.571 45.808 319.803 45.808C319.003 45.808 318.059 45.84 316.971 45.904C316.011 45.968 315.243 46 314.667 46C314.507 46 314.427 45.904 314.427 45.712C314.427 45.52 314.507 45.424 314.667 45.424C315.659 45.424 316.443 45.296 317.019 45.04C317.595 44.752 318.123 44.208 318.603 43.408C319.115 42.608 319.723 41.36 320.427 39.664L327.339 22.816C327.403 22.688 327.499 22.624 327.627 22.624C327.755 22.624 327.835 22.688 327.867 22.816L335.595 39.424C336.427 41.216 337.083 42.512 337.563 43.312C338.075 44.112 338.587 44.672 339.099 44.992C339.643 45.28 340.347 45.424 341.211 45.424ZM323.931 34.096H329.931L326.715 27.184L323.931 34.096ZM353.72 33.808C355.448 33.968 356.84 34.56 357.896 35.584C358.984 36.576 359.528 37.856 359.528 39.424C359.528 40.768 359.128 42 358.328 43.12C357.528 44.208 356.44 45.056 355.064 45.664C353.72 46.272 352.248 46.576 350.648 46.576C349.528 46.576 348.408 46.416 347.288 46.096C346.2 45.776 345.32 45.36 344.648 44.848C344.36 44.656 344.184 44.512 344.12 44.416C344.056 44.288 344.008 44.064 343.976 43.744L343.448 39.28C343.448 39.184 343.528 39.12 343.688 39.088C343.88 39.056 343.992 39.088 344.024 39.184C344.536 41.104 345.464 42.672 346.808 43.888C348.152 45.104 349.64 45.712 351.272 45.712C352.84 45.712 354.008 45.184 354.776 44.128C355.576 43.072 355.976 41.744 355.976 40.144C355.976 38.256 355.384 36.832 354.2 35.872C353.048 34.88 351.384 34.384 349.208 34.384C349.08 34.384 349.016 34.272 349.016 34.048C349.016 33.824 349.08 33.712 349.208 33.712C351.256 33.712 352.808 33.264 353.864 32.368C354.92 31.472 355.448 30.24 355.448 28.672C355.448 27.2 355.032 26 354.2 25.072C353.368 24.144 352.296 23.68 350.984 23.68C349.672 23.68 348.456 24.224 347.336 25.312C346.248 26.368 345.352 27.904 344.648 29.92C344.648 30.016 344.568 30.064 344.408 30.064C344.344 30.064 344.264 30.048 344.168 30.016C344.104 29.952 344.072 29.904 344.072 29.872L344.792 25.36C344.856 24.976 344.92 24.736 344.984 24.64C345.048 24.512 345.224 24.384 345.512 24.256C347.688 23.392 349.72 22.96 351.608 22.96C353.784 22.96 355.496 23.424 356.744 24.352C358.024 25.248 358.664 26.384 358.664 27.76C358.664 29.008 358.152 30.208 357.128 31.36C356.136 32.48 355 33.296 353.72 33.808ZM389.434 45.424C389.53 45.424 389.578 45.52 389.578 45.712C389.578 45.904 389.53 46 389.434 46C388.538 46 387.818 45.984 387.274 45.952L384.394 45.904L381.466 45.952C380.954 45.984 380.25 46 379.354 46C379.258 46 379.21 45.904 379.21 45.712C379.21 45.52 379.258 45.424 379.354 45.424C380.41 45.424 381.178 45.344 381.658 45.184C382.138 45.024 382.458 44.72 382.618 44.272C382.81 43.792 382.906 43.072 382.906 42.112V28.768L369.466 42.16C369.466 43.12 369.546 43.824 369.706 44.272C369.898 44.72 370.234 45.024 370.714 45.184C371.194 45.344 371.978 45.424 373.066 45.424C373.13 45.424 373.162 45.52 373.162 45.712C373.162 45.904 373.13 46 373.066 46C372.17 46 371.466 45.984 370.954 45.952L367.978 45.904L365.146 45.952C364.602 45.984 363.866 46 362.938 46C362.874 46 362.842 45.904 362.842 45.712C362.842 45.52 362.874 45.424 362.938 45.424C363.994 45.424 364.762 45.344 365.242 45.184C365.754 45.024 366.106 44.72 366.298 44.272C366.49 43.792 366.586 43.072 366.586 42.112V27.424C366.586 26.464 366.49 25.76 366.298 25.312C366.138 24.864 365.802 24.56 365.29 24.4C364.81 24.208 364.042 24.112 362.986 24.112C362.922 24.112 362.89 24.016 362.89 23.824C362.89 23.632 362.922 23.536 362.986 23.536L365.146 23.584C366.362 23.648 367.306 23.68 367.978 23.68C368.778 23.68 369.786 23.648 371.002 23.584L373.066 23.536C373.13 23.536 373.162 23.632 373.162 23.824C373.162 24.016 373.13 24.112 373.066 24.112C372.042 24.112 371.274 24.208 370.762 24.4C370.25 24.592 369.898 24.928 369.706 25.408C369.546 25.856 369.466 26.56 369.466 27.52V40.816L382.906 27.376C382.906 26.48 382.81 25.808 382.618 25.36C382.458 24.912 382.122 24.592 381.61 24.4C381.13 24.208 380.378 24.112 379.354 24.112C379.258 24.112 379.21 24.016 379.21 23.824C379.21 23.632 379.258 23.536 379.354 23.536L381.466 23.584C382.618 23.648 383.594 23.68 384.394 23.68C385.098 23.68 386.058 23.648 387.274 23.584L389.434 23.536C389.53 23.536 389.578 23.632 389.578 23.824C389.578 24.016 389.53 24.112 389.434 24.112C388.378 24.112 387.594 24.208 387.082 24.4C386.602 24.56 386.266 24.864 386.074 25.312C385.882 25.76 385.786 26.464 385.786 27.424V42.112C385.786 43.072 385.882 43.792 386.074 44.272C386.266 44.72 386.602 45.024 387.082 45.184C387.594 45.344 388.378 45.424 389.434 45.424ZM419.293 45.424C419.389 45.424 419.437 45.52 419.437 45.712C419.437 45.904 419.389 46 419.293 46C418.397 46 417.677 45.984 417.133 45.952L414.253 45.904L411.325 45.952C410.813 45.984 410.109 46 409.213 46C409.117 46 409.069 45.904 409.069 45.712C409.069 45.52 409.117 45.424 409.213 45.424C410.269 45.424 411.037 45.344 411.517 45.184C411.997 45.024 412.317 44.72 412.477 44.272C412.669 43.792 412.765 43.072 412.765 42.112V35.104H399.325V42.112C399.325 43.104 399.405 43.824 399.565 44.272C399.757 44.72 400.093 45.024 400.573 45.184C401.053 45.344 401.837 45.424 402.925 45.424C402.989 45.424 403.021 45.52 403.021 45.712C403.021 45.904 402.989 46 402.925 46C402.029 46 401.325 45.984 400.813 45.952L397.837 45.904L395.005 45.952C394.461 45.984 393.725 46 392.797 46C392.733 46 392.701 45.904 392.701 45.712C392.701 45.52 392.733 45.424 392.797 45.424C393.853 45.424 394.621 45.344 395.101 45.184C395.613 45.024 395.965 44.72 396.157 44.272C396.349 43.792 396.445 43.072 396.445 42.112V27.424C396.445 26.464 396.349 25.76 396.157 25.312C395.997 24.864 395.661 24.56 395.149 24.4C394.669 24.208 393.901 24.112 392.845 24.112C392.781 24.112 392.749 24.016 392.749 23.824C392.749 23.632 392.781 23.536 392.845 23.536L395.005 23.584C396.221 23.648 397.165 23.68 397.837 23.68C398.637 23.68 399.645 23.648 400.861 23.584L402.925 23.536C402.989 23.536 403.021 23.632 403.021 23.824C403.021 24.016 402.989 24.112 402.925 24.112C401.901 24.112 401.133 24.208 400.621 24.4C400.109 24.592 399.757 24.928 399.565 25.408C399.405 25.856 399.325 26.56 399.325 27.52V34.24H412.765V27.52C412.765 26.56 412.669 25.856 412.477 25.408C412.317 24.928 411.981 24.592 411.469 24.4C410.989 24.208 410.237 24.112 409.213 24.112C409.117 24.112 409.069 24.016 409.069 23.824C409.069 23.632 409.117 23.536 409.213 23.536L411.325 23.584C412.477 23.648 413.453 23.68 414.253 23.68C414.957 23.68 415.917 23.648 417.133 23.584L419.293 23.536C419.389 23.536 419.437 23.632 419.437 23.824C419.437 24.016 419.389 24.112 419.293 24.112C418.237 24.112 417.453 24.208 416.941 24.4C416.461 24.56 416.125 24.864 415.933 25.312C415.741 25.76 415.645 26.464 415.645 27.424V42.112C415.645 43.072 415.741 43.792 415.933 44.272C416.125 44.72 416.461 45.024 416.941 45.184C417.453 45.344 418.237 45.424 419.293 45.424ZM458.003 45.424C458.067 45.424 458.099 45.52 458.099 45.712C458.099 45.904 458.067 46 458.003 46H452.387C452.099 46 451.875 45.968 451.715 45.904C451.587 45.808 451.395 45.568 451.139 45.184C450.883 44.768 450.547 44.208 450.131 43.504C449.043 41.616 448.275 40.32 447.827 39.616C446.803 37.952 446.067 36.848 445.619 36.304C445.203 35.728 444.707 35.312 444.131 35.056C443.587 34.768 442.787 34.624 441.731 34.624C441.187 34.624 440.755 34.64 440.435 34.672V42.112C440.435 43.104 440.515 43.824 440.675 44.272C440.867 44.72 441.203 45.024 441.683 45.184C442.163 45.344 442.947 45.424 444.035 45.424C444.099 45.424 444.131 45.52 444.131 45.712C444.131 45.904 444.099 46 444.035 46C443.139 46 442.435 45.984 441.923 45.952L438.947 45.904L436.115 45.952C435.571 45.984 434.835 46 433.907 46C433.843 46 433.811 45.904 433.811 45.712C433.811 45.52 433.843 45.424 433.907 45.424C434.963 45.424 435.731 45.344 436.211 45.184C436.723 45.024 437.075 44.72 437.267 44.272C437.459 43.792 437.555 43.072 437.555 42.112V27.424C437.555 26.464 437.459 25.76 437.267 25.312C437.107 24.864 436.771 24.56 436.259 24.4C435.779 24.208 435.011 24.112 433.955 24.112C433.891 24.112 433.859 24.016 433.859 23.824C433.859 23.632 433.891 23.536 433.955 23.536L436.115 23.584C437.331 23.648 438.275 23.68 438.947 23.68C439.747 23.68 440.755 23.648 441.971 23.584L444.035 23.536C444.099 23.536 444.131 23.632 444.131 23.824C444.131 24.016 444.099 24.112 444.035 24.112C443.011 24.112 442.243 24.208 441.731 24.4C441.219 24.592 440.867 24.928 440.675 25.408C440.515 25.856 440.435 26.56 440.435 27.52V33.808C442.675 33.648 444.179 33.584 444.947 33.616L448.115 29.152C449.395 27.264 450.035 25.968 450.035 25.264C450.035 24.848 449.843 24.56 449.459 24.4C449.107 24.208 448.547 24.112 447.779 24.112C447.683 24.112 447.635 24.016 447.635 23.824C447.635 23.632 447.683 23.536 447.779 23.536L449.603 23.584C450.755 23.648 451.859 23.68 452.915 23.68C453.715 23.68 454.595 23.648 455.555 23.584L457.043 23.536C457.139 23.536 457.187 23.632 457.187 23.824C457.187 24.016 457.139 24.112 457.043 24.112C455.539 24.112 454.195 24.512 453.011 25.312C451.827 26.112 450.563 27.424 449.219 29.248L445.811 33.712C446.675 33.904 447.379 34.32 447.923 34.96C448.499 35.6 449.379 36.848 450.563 38.704C451.715 40.56 452.659 41.952 453.395 42.88C454.131 43.776 454.835 44.416 455.507 44.8C456.211 45.184 457.043 45.392 458.003 45.424ZM484.977 45.424C485.105 45.424 485.169 45.52 485.169 45.712C485.169 45.904 485.105 46 484.977 46C484.401 46 483.473 45.968 482.193 45.904C480.913 45.84 479.985 45.808 479.409 45.808C478.897 45.808 478.225 45.84 477.393 45.904C476.561 45.968 475.921 46 475.473 46C475.345 46 475.281 45.904 475.281 45.712C475.281 45.52 475.345 45.424 475.473 45.424C476.305 45.424 476.913 45.328 477.297 45.136C477.713 44.912 477.921 44.528 477.921 43.984C477.921 43.504 477.729 42.832 477.345 41.968L474.081 34.96H467.361L465.297 40.096C464.785 41.312 464.529 42.32 464.529 43.12C464.529 43.952 464.817 44.544 465.393 44.896C465.969 45.248 466.849 45.424 468.033 45.424C468.193 45.424 468.273 45.52 468.273 45.712C468.273 45.904 468.193 46 468.033 46C467.553 46 466.897 45.968 466.065 45.904C465.169 45.84 464.337 45.808 463.569 45.808C462.769 45.808 461.825 45.84 460.737 45.904C459.777 45.968 459.009 46 458.433 46C458.273 46 458.193 45.904 458.193 45.712C458.193 45.52 458.273 45.424 458.433 45.424C459.425 45.424 460.209 45.296 460.785 45.04C461.361 44.752 461.889 44.208 462.369 43.408C462.881 42.608 463.489 41.36 464.193 39.664L471.105 22.816C471.169 22.688 471.265 22.624 471.393 22.624C471.521 22.624 471.601 22.688 471.633 22.816L479.361 39.424C480.193 41.216 480.849 42.512 481.329 43.312C481.841 44.112 482.353 44.672 482.865 44.992C483.409 45.28 484.113 45.424 484.977 45.424ZM467.697 34.096H473.697L470.481 27.184L467.697 34.096ZM499.467 22.96C500.683 22.96 501.979 23.088 503.355 23.344C504.763 23.6 505.899 23.936 506.763 24.352C506.987 24.448 507.131 24.544 507.195 24.64C507.259 24.736 507.307 24.912 507.339 25.168L507.819 30.112C507.819 30.208 507.723 30.272 507.531 30.304C507.371 30.336 507.275 30.288 507.243 30.16C506.667 27.952 505.611 26.32 504.075 25.264C502.571 24.208 500.699 23.68 498.459 23.68C496.795 23.68 495.291 24.128 493.947 25.024C492.635 25.92 491.595 27.152 490.827 28.72C490.091 30.256 489.723 32 489.723 33.952C489.723 35.936 490.091 37.856 490.827 39.712C491.595 41.536 492.731 43.024 494.235 44.176C495.771 45.328 497.611 45.904 499.755 45.904C503.787 45.904 506.427 43.696 507.675 39.28C507.675 39.184 507.755 39.136 507.915 39.136C507.979 39.136 508.043 39.168 508.107 39.232C508.203 39.264 508.251 39.296 508.251 39.328L507.627 44.416C507.595 44.672 507.547 44.848 507.483 44.944C507.419 45.04 507.243 45.152 506.955 45.28C504.491 46.144 501.931 46.576 499.275 46.576C496.235 46.576 493.739 45.968 491.787 44.752C489.835 43.536 488.427 42.016 487.563 40.192C486.699 38.368 486.267 36.528 486.267 34.672C486.267 32.496 486.843 30.512 487.995 28.72C489.147 26.928 490.731 25.52 492.747 24.496C494.763 23.472 497.003 22.96 499.467 22.96ZM517.567 24.16C516.351 24.16 515.391 24.336 514.687 24.688C513.983 25.008 513.423 25.568 513.007 26.368C512.623 27.168 512.319 28.304 512.095 29.776C512.095 29.84 511.999 29.872 511.807 29.872C511.647 29.872 511.567 29.84 511.567 29.776C511.663 29.04 511.775 27.856 511.903 26.224C512.031 24.592 512.095 23.344 512.095 22.48C512.095 22.32 512.191 22.24 512.383 22.24C512.575 22.24 512.671 22.32 512.671 22.48C512.671 22.896 512.911 23.168 513.391 23.296C513.871 23.392 514.463 23.44 515.167 23.44C517.983 23.504 520.399 23.536 522.415 23.536L526.591 23.488C527.167 23.456 527.919 23.44 528.847 23.44C529.999 23.44 530.847 23.376 531.391 23.248C531.935 23.088 532.287 22.768 532.447 22.288C532.511 22.192 532.623 22.144 532.783 22.144C532.943 22.144 533.023 22.192 533.023 22.288C532.831 25.744 532.735 28.24 532.735 29.776C532.735 29.84 532.639 29.872 532.447 29.872C532.287 29.872 532.207 29.84 532.207 29.776C532.175 28.336 531.999 27.216 531.679 26.416C531.391 25.616 530.895 25.04 530.191 24.688C529.487 24.336 528.511 24.16 527.263 24.16C525.887 24.16 524.975 24.384 524.527 24.832C524.079 25.248 523.855 26.112 523.855 27.424V42.112C523.855 43.104 523.951 43.824 524.143 44.272C524.335 44.72 524.703 45.024 525.247 45.184C525.791 45.344 526.687 45.424 527.935 45.424C528.031 45.424 528.079 45.52 528.079 45.712C528.079 45.904 528.031 46 527.935 46C526.943 46 526.175 45.984 525.631 45.952L522.271 45.904L519.055 45.952C518.479 45.984 517.679 46 516.655 46C516.591 46 516.559 45.904 516.559 45.712C516.559 45.52 516.591 45.424 516.655 45.424C517.871 45.424 518.767 45.344 519.343 45.184C519.919 45.024 520.303 44.72 520.495 44.272C520.719 43.792 520.831 43.072 520.831 42.112V27.328C520.831 26.4 520.751 25.728 520.591 25.312C520.463 24.864 520.175 24.56 519.727 24.4C519.279 24.24 518.559 24.16 517.567 24.16ZM547.38 46.576C545.14 46.576 543.14 46.048 541.38 44.992C539.652 43.936 538.308 42.512 537.348 40.72C536.388 38.928 535.908 36.992 535.908 34.912C535.908 32.416 536.548 30.272 537.828 28.48C539.14 26.656 540.788 25.28 542.772 24.352C544.788 23.424 546.836 22.96 548.916 22.96C551.156 22.96 553.124 23.52 554.82 24.64C556.548 25.728 557.86 27.152 558.756 28.912C559.684 30.672 560.148 32.512 560.148 34.432C560.148 36.576 559.572 38.592 558.42 40.48C557.268 42.336 555.716 43.824 553.764 44.944C551.812 46.032 549.684 46.576 547.38 46.576ZM548.628 45.568C551.124 45.568 553.108 44.688 554.58 42.928C556.084 41.168 556.836 38.736 556.836 35.632C556.836 33.488 556.452 31.536 555.684 29.776C554.948 28.016 553.86 26.608 552.42 25.552C550.98 24.496 549.268 23.968 547.284 23.968C544.724 23.968 542.74 24.832 541.332 26.56C539.924 28.256 539.22 30.64 539.22 33.712C539.22 35.92 539.588 37.92 540.324 39.712C541.092 41.504 542.18 42.928 543.588 43.984C545.028 45.04 546.708 45.568 548.628 45.568ZM593.515 45.424C593.579 45.424 593.611 45.52 593.611 45.712C593.611 45.904 593.579 46 593.515 46C592.619 46 591.915 45.984 591.403 45.952L588.571 45.904L585.307 45.952C584.763 45.984 584.011 46 583.051 46C582.987 46 582.955 45.904 582.955 45.712C582.955 45.52 582.987 45.424 583.051 45.424C584.235 45.424 585.115 45.344 585.691 45.184C586.267 44.992 586.651 44.672 586.843 44.224C587.035 43.776 587.099 43.072 587.035 42.112L586.459 25.936L578.203 45.664C578.139 45.792 578.027 45.856 577.867 45.856C577.675 45.856 577.547 45.792 577.483 45.664L568.315 27.52L568.219 27.328L567.787 40.768C567.755 42.464 567.979 43.664 568.459 44.368C568.939 45.072 569.755 45.424 570.907 45.424C571.003 45.424 571.051 45.52 571.051 45.712C571.051 45.904 571.003 46 570.907 46C570.235 46 569.723 45.984 569.371 45.952L567.259 45.904L565.243 45.952C564.827 45.984 564.251 46 563.515 46C563.451 46 563.419 45.904 563.419 45.712C563.419 45.52 563.451 45.424 563.515 45.424C564.699 45.424 565.531 45.072 566.011 44.368C566.491 43.664 566.763 42.464 566.827 40.768L567.307 25.888C566.379 24.704 565.243 24.112 563.899 24.112C563.803 24.112 563.755 24.016 563.755 23.824C563.755 23.632 563.803 23.536 563.899 23.536L566.539 23.584L568.843 23.536C569.259 23.536 569.595 23.68 569.851 23.968C570.107 24.256 570.507 24.944 571.051 26.032L578.923 41.68L586.027 24.736C586.155 24.384 586.347 24.096 586.603 23.872C586.891 23.648 587.179 23.536 587.467 23.536L590.011 23.584L593.227 23.536C593.291 23.536 593.323 23.632 593.323 23.824C593.323 24.016 593.291 24.112 593.227 24.112C591.787 24.112 590.779 24.336 590.203 24.784C589.627 25.2 589.371 26.048 589.435 27.328L590.011 42.112C590.075 43.104 590.187 43.824 590.347 44.272C590.507 44.72 590.811 45.024 591.259 45.184C591.739 45.344 592.491 45.424 593.515 45.424ZM623.106 45.424C623.202 45.424 623.25 45.52 623.25 45.712C623.25 45.904 623.202 46 623.106 46C622.21 46 621.49 45.984 620.946 45.952L618.066 45.904L615.138 45.952C614.626 45.984 613.922 46 613.026 46C612.93 46 612.882 45.904 612.882 45.712C612.882 45.52 612.93 45.424 613.026 45.424C614.082 45.424 614.85 45.344 615.33 45.184C615.81 45.024 616.13 44.72 616.29 44.272C616.482 43.792 616.578 43.072 616.578 42.112V35.104H603.138V42.112C603.138 43.104 603.218 43.824 603.378 44.272C603.57 44.72 603.906 45.024 604.386 45.184C604.866 45.344 605.65 45.424 606.738 45.424C606.802 45.424 606.834 45.52 606.834 45.712C606.834 45.904 606.802 46 606.738 46C605.842 46 605.138 45.984 604.626 45.952L601.65 45.904L598.818 45.952C598.274 45.984 597.538 46 596.61 46C596.546 46 596.514 45.904 596.514 45.712C596.514 45.52 596.546 45.424 596.61 45.424C597.666 45.424 598.434 45.344 598.914 45.184C599.426 45.024 599.778 44.72 599.97 44.272C600.162 43.792 600.258 43.072 600.258 42.112V27.424C600.258 26.464 600.162 25.76 599.97 25.312C599.81 24.864 599.474 24.56 598.962 24.4C598.482 24.208 597.714 24.112 596.658 24.112C596.594 24.112 596.562 24.016 596.562 23.824C596.562 23.632 596.594 23.536 596.658 23.536L598.818 23.584C600.034 23.648 600.978 23.68 601.65 23.68C602.45 23.68 603.458 23.648 604.674 23.584L606.738 23.536C606.802 23.536 606.834 23.632 606.834 23.824C606.834 24.016 606.802 24.112 606.738 24.112C605.714 24.112 604.946 24.208 604.434 24.4C603.922 24.592 603.57 24.928 603.378 25.408C603.218 25.856 603.138 26.56 603.138 27.52V34.24H616.578V27.52C616.578 26.56 616.482 25.856 616.29 25.408C616.13 24.928 615.794 24.592 615.282 24.4C614.802 24.208 614.05 24.112 613.026 24.112C612.93 24.112 612.882 24.016 612.882 23.824C612.882 23.632 612.93 23.536 613.026 23.536L615.138 23.584C616.29 23.648 617.266 23.68 618.066 23.68C618.77 23.68 619.73 23.648 620.946 23.584L623.106 23.536C623.202 23.536 623.25 23.632 623.25 23.824C623.25 24.016 623.202 24.112 623.106 24.112C622.05 24.112 621.266 24.208 620.754 24.4C620.274 24.56 619.938 24.864 619.746 25.312C619.554 25.76 619.458 26.464 619.458 27.424V42.112C619.458 43.072 619.554 43.792 619.746 44.272C619.938 44.72 620.274 45.024 620.754 45.184C621.266 45.344 622.05 45.424 623.106 45.424ZM637.989 46.576C635.749 46.576 633.749 46.048 631.989 44.992C630.261 43.936 628.917 42.512 627.957 40.72C626.997 38.928 626.517 36.992 626.517 34.912C626.517 32.416 627.157 30.272 628.437 28.48C629.749 26.656 631.397 25.28 633.381 24.352C635.397 23.424 637.445 22.96 639.525 22.96C641.765 22.96 643.733 23.52 645.429 24.64C647.157 25.728 648.469 27.152 649.365 28.912C650.293 30.672 650.757 32.512 650.757 34.432C650.757 36.576 650.181 38.592 649.029 40.48C647.877 42.336 646.325 43.824 644.373 44.944C642.421 46.032 640.293 46.576 637.989 46.576ZM639.237 45.568C641.733 45.568 643.717 44.688 645.189 42.928C646.693 41.168 647.445 38.736 647.445 35.632C647.445 33.488 647.061 31.536 646.293 29.776C645.557 28.016 644.469 26.608 643.029 25.552C641.589 24.496 639.877 23.968 637.893 23.968C635.333 23.968 633.349 24.832 631.941 26.56C630.533 28.256 629.829 30.64 629.829 33.712C629.829 35.92 630.197 37.92 630.933 39.712C631.701 41.504 632.789 42.928 634.197 43.984C635.637 45.04 637.317 45.568 639.237 45.568ZM667.42 21.232C666.3 21.232 665.228 21.024 664.204 20.608C663.18 20.192 662.348 19.648 661.708 18.976C661.1 18.304 660.796 17.6 660.796 16.864C660.796 16.416 660.908 16.064 661.132 15.808C661.388 15.552 661.724 15.424 662.14 15.424C662.748 15.424 663.164 15.616 663.388 16C663.644 16.352 663.884 16.928 664.108 17.728C664.716 19.68 665.804 20.656 667.372 20.656C668.268 20.656 669.004 20.384 669.58 19.84C670.156 19.296 670.556 18.592 670.78 17.728C671.004 16.96 671.244 16.384 671.5 16C671.756 15.616 672.172 15.424 672.748 15.424C673.644 15.424 674.092 15.92 674.092 16.912C674.092 17.648 673.772 18.352 673.132 19.024C672.492 19.696 671.66 20.24 670.636 20.656C669.612 21.04 668.54 21.232 667.42 21.232ZM680.668 45.424C680.764 45.424 680.812 45.52 680.812 45.712C680.812 45.904 680.764 46 680.668 46C679.772 46 679.052 45.984 678.508 45.952L675.628 45.904L672.7 45.952C672.188 45.984 671.484 46 670.588 46C670.492 46 670.444 45.904 670.444 45.712C670.444 45.52 670.492 45.424 670.588 45.424C671.644 45.424 672.412 45.344 672.892 45.184C673.372 45.024 673.692 44.72 673.852 44.272C674.044 43.792 674.14 43.072 674.14 42.112V28.768L660.7 42.16C660.7 43.12 660.78 43.824 660.94 44.272C661.132 44.72 661.468 45.024 661.948 45.184C662.428 45.344 663.212 45.424 664.3 45.424C664.364 45.424 664.396 45.52 664.396 45.712C664.396 45.904 664.364 46 664.3 46C663.404 46 662.7 45.984 662.188 45.952L659.212 45.904L656.38 45.952C655.836 45.984 655.1 46 654.172 46C654.108 46 654.076 45.904 654.076 45.712C654.076 45.52 654.108 45.424 654.172 45.424C655.228 45.424 655.996 45.344 656.476 45.184C656.988 45.024 657.34 44.72 657.532 44.272C657.724 43.792 657.82 43.072 657.82 42.112V27.424C657.82 26.464 657.724 25.76 657.532 25.312C657.372 24.864 657.036 24.56 656.524 24.4C656.044 24.208 655.276 24.112 654.22 24.112C654.156 24.112 654.124 24.016 654.124 23.824C654.124 23.632 654.156 23.536 654.22 23.536L656.38 23.584C657.596 23.648 658.54 23.68 659.212 23.68C660.012 23.68 661.02 23.648 662.236 23.584L664.3 23.536C664.364 23.536 664.396 23.632 664.396 23.824C664.396 24.016 664.364 24.112 664.3 24.112C663.276 24.112 662.508 24.208 661.996 24.4C661.484 24.592 661.132 24.928 660.94 25.408C660.78 25.856 660.7 26.56 660.7 27.52V40.816L674.14 27.376C674.14 26.48 674.044 25.808 673.852 25.36C673.692 24.912 673.356 24.592 672.844 24.4C672.364 24.208 671.612 24.112 670.588 24.112C670.492 24.112 670.444 24.016 670.444 23.824C670.444 23.632 670.492 23.536 670.588 23.536L672.7 23.584C673.852 23.648 674.828 23.68 675.628 23.68C676.332 23.68 677.292 23.648 678.508 23.584L680.668 23.536C680.764 23.536 680.812 23.632 680.812 23.824C680.812 24.016 680.764 24.112 680.668 24.112C679.612 24.112 678.828 24.208 678.316 24.4C677.836 24.56 677.5 24.864 677.308 25.312C677.116 25.76 677.02 26.464 677.02 27.424V42.112C677.02 43.072 677.116 43.792 677.308 44.272C677.5 44.72 677.836 45.024 678.316 45.184C678.828 45.344 679.612 45.424 680.668 45.424Z" fill="white"/>
<path d="M391.583 77.576C389.343 77.576 387.343 77.048 385.583 75.992C383.855 74.936 382.511 73.512 381.551 71.72C380.591 69.928 380.111 67.992 380.111 65.912C380.111 63.416 380.751 61.272 382.031 59.48C383.343 57.656 384.991 56.28 386.975 55.352C388.991 54.424 391.039 53.96 393.119 53.96C395.359 53.96 397.327 54.52 399.023 55.64C400.751 56.728 402.063 58.152 402.959 59.912C403.887 61.672 404.351 63.512 404.351 65.432C404.351 67.576 403.775 69.592 402.623 71.48C401.471 73.336 399.919 74.824 397.967 75.944C396.015 77.032 393.887 77.576 391.583 77.576ZM392.831 76.568C395.327 76.568 397.311 75.688 398.783 73.928C400.287 72.168 401.039 69.736 401.039 66.632C401.039 64.488 400.655 62.536 399.887 60.776C399.151 59.016 398.063 57.608 396.623 56.552C395.183 55.496 393.471 54.968 391.487 54.968C388.927 54.968 386.943 55.832 385.535 57.56C384.127 59.256 383.423 61.64 383.423 64.712C383.423 66.92 383.791 68.92 384.527 70.712C385.295 72.504 386.383 73.928 387.791 74.984C389.231 76.04 390.911 76.568 392.831 76.568ZM428.529 76.424C428.753 76.424 428.881 76.456 428.913 76.52C428.977 76.552 429.009 76.712 429.009 77L428.961 78.2C428.801 79.896 428.721 81.928 428.721 84.296C428.721 84.456 428.625 84.536 428.433 84.536C428.241 84.536 428.145 84.456 428.145 84.296C428.145 81.608 427.665 79.72 426.705 78.632C425.777 77.544 424.449 77 422.721 77H411.201C409.633 77 408.401 77.544 407.505 78.632C406.641 79.72 406.209 81.608 406.209 84.296C406.209 84.456 406.113 84.536 405.921 84.536C405.729 84.536 405.633 84.456 405.633 84.296C405.633 82.408 405.601 80.984 405.537 80.024C405.473 79.064 405.441 78.472 405.441 78.248C405.377 77.608 405.345 77.192 405.345 77C405.345 76.712 405.361 76.552 405.393 76.52C405.457 76.456 405.601 76.424 405.825 76.424C410.145 76.424 412.753 70.696 413.649 59.24C413.681 58.92 413.697 58.504 413.697 57.992C413.697 56.808 413.457 56.04 412.977 55.688C412.497 55.304 411.585 55.112 410.241 55.112C410.145 55.112 410.097 55.016 410.097 54.824C410.097 54.632 410.145 54.536 410.241 54.536H428.817C428.881 54.536 428.913 54.632 428.913 54.824C428.913 55.016 428.881 55.112 428.817 55.112C427.761 55.112 426.977 55.208 426.465 55.4C425.985 55.592 425.649 55.928 425.457 56.408C425.297 56.856 425.217 57.56 425.217 58.52V73.112C425.217 73.4 425.201 73.976 425.169 74.84C425.169 75.672 425.393 76.152 425.841 76.28C426.321 76.376 427.217 76.424 428.529 76.424ZM422.337 58.424C422.337 57.336 422.305 56.616 422.241 56.264C422.177 55.912 422.001 55.704 421.713 55.64C421.425 55.544 420.849 55.496 419.985 55.496H417.969C417.041 55.496 416.385 55.56 416.001 55.688C415.649 55.816 415.409 56.056 415.281 56.408C415.153 56.76 415.041 57.4 414.945 58.328C414.529 63.032 413.937 66.84 413.169 69.752C412.401 72.632 411.265 74.696 409.761 75.944H416.001C418.241 75.944 419.745 75.912 420.513 75.848C421.281 75.752 421.777 75.528 422.001 75.176C422.225 74.824 422.337 74.136 422.337 73.112V58.424ZM450.331 70.616C450.331 70.52 450.411 70.472 450.571 70.472C450.763 70.472 450.859 70.52 450.859 70.616C450.635 72.92 450.523 74.808 450.523 76.28C450.523 76.536 450.475 76.728 450.379 76.856C450.283 76.952 450.091 77 449.803 77H432.235C432.171 77 432.139 76.904 432.139 76.712C432.139 76.52 432.171 76.424 432.235 76.424C433.291 76.424 434.059 76.344 434.539 76.184C435.019 76.024 435.339 75.72 435.499 75.272C435.691 74.792 435.787 74.072 435.787 73.112V58.424C435.787 57.464 435.691 56.76 435.499 56.312C435.339 55.864 435.019 55.56 434.539 55.4C434.059 55.208 433.291 55.112 432.235 55.112C432.171 55.112 432.139 55.016 432.139 54.824C432.139 54.632 432.171 54.536 432.235 54.536H448.939C449.259 54.536 449.419 54.664 449.419 54.92L449.467 57.896C449.499 58.504 449.515 59.272 449.515 60.2C449.515 60.296 449.419 60.344 449.227 60.344C449.035 60.344 448.939 60.296 448.939 60.2C448.811 58.728 448.267 57.528 447.307 56.6C446.379 55.64 445.227 55.16 443.851 55.16H442.507C441.387 55.16 440.571 55.256 440.059 55.448C439.547 55.608 439.195 55.912 439.003 56.36C438.811 56.808 438.715 57.512 438.715 58.472V65.048C441.819 65.016 443.931 64.936 445.051 64.808C446.203 64.648 446.859 64.568 447.019 64.568C447.179 64.568 447.259 64.904 447.259 65.576C447.259 66.312 447.179 66.68 447.019 66.68C446.891 66.68 446.251 66.6 445.099 66.44C443.947 66.248 441.819 66.12 438.715 66.056V72.92C438.715 73.848 438.811 74.552 439.003 75.032C439.195 75.48 439.547 75.8 440.059 75.992C440.603 76.152 441.419 76.232 442.507 76.232H444.811C446.091 76.232 447.243 75.72 448.267 74.696C449.291 73.64 449.979 72.28 450.331 70.616ZM490.404 76.424C490.5 76.424 490.548 76.52 490.548 76.712C490.548 76.904 490.5 77 490.404 77H485.172C484.884 77 484.66 76.968 484.5 76.904C484.372 76.808 484.164 76.536 483.876 76.088C483.588 75.608 483.22 74.984 482.772 74.216L480.612 70.616C479.588 68.952 478.852 67.848 478.404 67.304C477.988 66.728 477.492 66.312 476.916 66.056C476.372 65.768 475.572 65.624 474.516 65.624C473.972 65.624 473.54 65.64 473.22 65.672V73.112C473.22 74.072 473.3 74.792 473.46 75.272C473.652 75.72 473.988 76.024 474.468 76.184C474.948 76.344 475.716 76.424 476.772 76.424C476.868 76.424 476.916 76.52 476.916 76.712C476.916 76.904 476.868 77 476.772 77C475.876 77 475.172 76.984 474.66 76.952L471.732 76.904L468.9 76.952C468.356 76.984 467.62 77 466.692 77C466.596 77 466.548 76.904 466.548 76.712C466.548 76.52 466.596 76.424 466.692 76.424C467.748 76.424 468.516 76.344 468.996 76.184C469.508 76.024 469.86 75.72 470.052 75.272C470.244 74.792 470.34 74.072 470.34 73.112V65.672C470.02 65.64 469.588 65.624 469.044 65.624C467.988 65.624 467.172 65.768 466.596 66.056C466.052 66.312 465.556 66.728 465.108 67.304C464.692 67.848 463.972 68.952 462.948 70.616C462.404 71.512 461.956 72.248 461.604 72.824C461.284 73.4 461.012 73.864 460.788 74.216C460.34 74.984 459.956 75.608 459.636 76.088C459.348 76.536 459.124 76.808 458.964 76.904C458.836 76.968 458.628 77 458.34 77H453.108C453.044 77 453.012 76.904 453.012 76.712C453.012 76.52 453.044 76.424 453.108 76.424C453.908 76.424 454.628 76.232 455.268 75.848C455.908 75.464 456.596 74.808 457.332 73.88C458.1 72.92 459.06 71.528 460.212 69.704C461.332 67.88 462.18 66.648 462.756 66.008C463.364 65.336 464.084 64.92 464.916 64.76L461.556 60.248C460.18 58.424 458.9 57.112 457.716 56.312C456.532 55.512 455.204 55.112 453.732 55.112C453.636 55.112 453.588 55.016 453.588 54.824C453.588 54.632 453.636 54.536 453.732 54.536L455.172 54.584C456.132 54.648 457.012 54.68 457.812 54.68C458.868 54.68 459.972 54.648 461.124 54.584L462.996 54.536C463.092 54.536 463.14 54.632 463.14 54.824C463.14 55.016 463.092 55.112 462.996 55.112C462.228 55.112 461.652 55.208 461.268 55.4C460.884 55.56 460.692 55.848 460.692 56.264C460.692 56.968 461.348 58.264 462.66 60.152L465.828 64.616C466.596 64.584 468.1 64.648 470.34 64.808V58.424C470.34 57.464 470.244 56.76 470.052 56.312C469.892 55.864 469.556 55.56 469.044 55.4C468.564 55.208 467.796 55.112 466.74 55.112C466.644 55.112 466.596 55.016 466.596 54.824C466.596 54.632 466.644 54.536 466.74 54.536L468.9 54.584C470.116 54.648 471.06 54.68 471.732 54.68C472.5 54.68 473.492 54.648 474.708 54.584L476.772 54.536C476.868 54.536 476.916 54.632 476.916 54.824C476.916 55.016 476.868 55.112 476.772 55.112C475.748 55.112 474.98 55.208 474.468 55.4C473.988 55.592 473.652 55.928 473.46 56.408C473.3 56.856 473.22 57.56 473.22 58.52V64.808C475.46 64.648 476.948 64.584 477.684 64.616L480.9 60.152C482.18 58.264 482.82 56.968 482.82 56.264C482.82 55.848 482.628 55.56 482.244 55.4C481.86 55.208 481.284 55.112 480.516 55.112C480.42 55.112 480.372 55.016 480.372 54.824C480.372 54.632 480.42 54.536 480.516 54.536L482.436 54.584C483.524 54.648 484.612 54.68 485.7 54.68C486.5 54.68 487.38 54.648 488.34 54.584L489.78 54.536C489.876 54.536 489.924 54.632 489.924 54.824C489.924 55.016 489.876 55.112 489.78 55.112C488.308 55.112 486.98 55.512 485.796 56.312C484.612 57.112 483.332 58.424 481.956 60.248L478.596 64.712C479.428 64.904 480.116 65.32 480.66 65.96C481.236 66.6 482.116 67.848 483.3 69.704C484.452 71.528 485.396 72.92 486.132 73.88C486.9 74.808 487.604 75.464 488.244 75.848C488.884 76.232 489.604 76.424 490.404 76.424ZM514.263 76.424C514.487 76.424 514.615 76.456 514.647 76.52C514.711 76.552 514.743 76.712 514.743 77L514.695 78.2C514.535 79.896 514.455 81.928 514.455 84.296C514.455 84.456 514.359 84.536 514.167 84.536C513.975 84.536 513.879 84.456 513.879 84.296C513.879 81.608 513.399 79.72 512.439 78.632C511.511 77.544 510.183 77 508.455 77H496.935C495.367 77 494.135 77.544 493.239 78.632C492.375 79.72 491.943 81.608 491.943 84.296C491.943 84.456 491.847 84.536 491.655 84.536C491.463 84.536 491.367 84.456 491.367 84.296C491.367 82.408 491.335 80.984 491.271 80.024C491.207 79.064 491.175 78.472 491.175 78.248C491.111 77.608 491.079 77.192 491.079 77C491.079 76.712 491.095 76.552 491.127 76.52C491.191 76.456 491.335 76.424 491.559 76.424C495.879 76.424 498.487 70.696 499.383 59.24C499.415 58.92 499.431 58.504 499.431 57.992C499.431 56.808 499.191 56.04 498.711 55.688C498.231 55.304 497.319 55.112 495.975 55.112C495.879 55.112 495.831 55.016 495.831 54.824C495.831 54.632 495.879 54.536 495.975 54.536H514.551C514.615 54.536 514.647 54.632 514.647 54.824C514.647 55.016 514.615 55.112 514.551 55.112C513.495 55.112 512.711 55.208 512.199 55.4C511.719 55.592 511.383 55.928 511.191 56.408C511.031 56.856 510.951 57.56 510.951 58.52V73.112C510.951 73.4 510.935 73.976 510.903 74.84C510.903 75.672 511.127 76.152 511.575 76.28C512.055 76.376 512.951 76.424 514.263 76.424ZM508.071 58.424C508.071 57.336 508.039 56.616 507.975 56.264C507.911 55.912 507.735 55.704 507.447 55.64C507.159 55.544 506.583 55.496 505.719 55.496H503.703C502.775 55.496 502.119 55.56 501.735 55.688C501.383 55.816 501.143 56.056 501.015 56.408C500.887 56.76 500.775 57.4 500.679 58.328C500.263 63.032 499.671 66.84 498.903 69.752C498.135 72.632 496.999 74.696 495.495 75.944H501.735C503.975 75.944 505.479 75.912 506.247 75.848C507.015 75.752 507.511 75.528 507.735 75.176C507.959 74.824 508.071 74.136 508.071 73.112V58.424ZM529.921 64.376C532.673 64.376 534.769 64.872 536.209 65.864C537.649 66.856 538.369 68.296 538.369 70.184C538.369 72.264 537.537 73.96 535.873 75.272C534.209 76.552 532.065 77.192 529.441 77.192C528.609 77.192 527.633 77.144 526.513 77.048C526.065 77.016 525.537 76.984 524.929 76.952C524.321 76.92 523.665 76.904 522.961 76.904L520.177 76.952C519.633 76.984 518.897 77 517.969 77C517.905 77 517.873 76.904 517.873 76.712C517.873 76.52 517.905 76.424 517.969 76.424C519.057 76.424 519.841 76.344 520.321 76.184C520.833 76.024 521.169 75.72 521.329 75.272C521.521 74.792 521.617 74.072 521.617 73.112V58.424C521.617 57.464 521.521 56.76 521.329 56.312C521.169 55.864 520.833 55.56 520.321 55.4C519.841 55.208 519.073 55.112 518.017 55.112C517.953 55.112 517.921 55.016 517.921 54.824C517.921 54.632 517.953 54.536 518.017 54.536L520.177 54.584C521.393 54.648 522.337 54.68 523.009 54.68C523.809 54.68 524.817 54.648 526.033 54.584L528.097 54.536C528.161 54.536 528.193 54.632 528.193 54.824C528.193 55.016 528.161 55.112 528.097 55.112C527.073 55.112 526.305 55.208 525.793 55.4C525.281 55.592 524.929 55.928 524.737 56.408C524.577 56.856 524.497 57.56 524.497 58.52V64.904C526.609 64.552 528.417 64.376 529.921 64.376ZM551.089 76.424C551.153 76.424 551.185 76.52 551.185 76.712C551.185 76.904 551.153 77 551.089 77C550.193 77 549.489 76.984 548.977 76.952L545.953 76.904L543.121 76.952C542.577 76.984 541.841 77 540.913 77C540.849 77 540.817 76.904 540.817 76.712C540.817 76.52 540.849 76.424 540.913 76.424C542.001 76.424 542.785 76.344 543.265 76.184C543.745 76.024 544.065 75.72 544.225 75.272C544.417 74.824 544.513 74.104 544.513 73.112V58.424C544.513 57.464 544.417 56.76 544.225 56.312C544.065 55.864 543.729 55.56 543.217 55.4C542.737 55.208 541.969 55.112 540.913 55.112C540.849 55.112 540.817 55.016 540.817 54.824C540.817 54.632 540.849 54.536 540.913 54.536L543.121 54.584C544.273 54.648 545.217 54.68 545.953 54.68C546.785 54.68 547.809 54.648 549.025 54.584L551.089 54.536C551.153 54.536 551.185 54.632 551.185 54.824C551.185 55.016 551.153 55.112 551.089 55.112C550.065 55.112 549.297 55.208 548.785 55.4C548.273 55.592 547.921 55.928 547.729 56.408C547.569 56.856 547.489 57.56 547.489 58.52V73.112C547.489 74.104 547.569 74.824 547.729 75.272C547.921 75.72 548.257 76.024 548.737 76.184C549.217 76.344 550.001 76.424 551.089 76.424ZM528.529 76.424C530.801 76.424 532.481 75.976 533.569 75.08C534.657 74.152 535.201 72.84 535.201 71.144C535.201 69.256 534.545 67.816 533.233 66.824C531.953 65.8 530.129 65.288 527.761 65.288C526.737 65.288 525.649 65.384 524.497 65.576V73.112C524.497 74.328 524.769 75.192 525.313 75.704C525.857 76.184 526.929 76.424 528.529 76.424Z" fill="white"/>
<path d="M169.4 86.04C169.4 89.16 170.16 91.88 171.68 94.2C173.2 96.52 175.04 98.48 177.2 100.08C179.36 101.6 182.4 103.56 186.32 105.96C190.48 108.44 193.72 110.52 196.04 112.2C198.36 113.88 200.32 116.04 201.92 118.68C203.6 121.24 204.44 124.32 204.44 127.92C204.44 131.76 203.48 135.24 201.56 138.36C199.64 141.48 196.8 143.96 193.04 145.8C189.36 147.56 184.92 148.44 179.72 148.44C173.56 148.44 167.92 147.04 162.8 144.24C162.4 144 162.12 143.72 161.96 143.4C161.88 143.08 161.8 142.6 161.72 141.96L160.16 125.64C160.08 125.32 160.24 125.12 160.64 125.04C161.12 124.96 161.4 125.08 161.48 125.4C162.76 131.16 165.12 136.12 168.56 140.28C172.08 144.44 176.72 146.52 182.48 146.52C186.48 146.52 189.84 145.44 192.56 143.28C195.36 141.04 196.76 137.52 196.76 132.72C196.76 129.12 195.96 126 194.36 123.36C192.76 120.72 190.8 118.56 188.48 116.88C186.24 115.12 183.16 113.08 179.24 110.76C175.4 108.44 172.36 106.44 170.12 104.76C167.96 103.08 166.12 100.96 164.6 98.4C163.08 95.84 162.32 92.84 162.32 89.4C162.32 85.4 163.36 82 165.44 79.2C167.6 76.32 170.36 74.2 173.72 72.84C177.16 71.4 180.8 70.68 184.64 70.68C189.36 70.68 194.04 71.64 198.68 73.56C199.88 73.96 200.48 74.64 200.48 75.6L201.32 89.4C201.32 89.72 201.12 89.88 200.72 89.88C200.32 89.88 200.08 89.72 200 89.4C199.36 85.24 197.64 81.4 194.84 77.88C192.04 74.28 188 72.48 182.72 72.48C178.24 72.48 174.88 73.8 172.64 76.44C170.48 79 169.4 82.2 169.4 86.04ZM260.385 131.04C260.385 130.8 260.585 130.68 260.985 130.68C261.465 130.68 261.705 130.8 261.705 131.04C261.145 136.8 260.865 141.52 260.865 145.2C260.865 145.84 260.745 146.32 260.505 146.64C260.265 146.88 259.785 147 259.065 147H215.145C214.985 147 214.905 146.76 214.905 146.28C214.905 145.8 214.985 145.56 215.145 145.56C217.785 145.56 219.705 145.36 220.905 144.96C222.105 144.56 222.905 143.8 223.305 142.68C223.785 141.48 224.025 139.68 224.025 137.28V100.56C224.025 98.16 223.785 96.4 223.305 95.28C222.905 94.16 222.105 93.4 220.905 93C219.705 92.52 217.785 92.28 215.145 92.28C214.985 92.28 214.905 92.04 214.905 91.56C214.905 91.08 214.985 90.84 215.145 90.84H256.905C257.705 90.84 258.105 91.16 258.105 91.8L258.225 99.24C258.305 100.76 258.345 102.68 258.345 105C258.345 105.24 258.105 105.36 257.625 105.36C257.145 105.36 256.905 105.24 256.905 105C256.585 101.32 255.225 98.32 252.825 96C250.505 93.6 247.625 92.4 244.185 92.4H240.825C238.025 92.4 235.985 92.64 234.705 93.12C233.425 93.52 232.545 94.28 232.065 95.4C231.585 96.52 231.345 98.28 231.345 100.68V117.12C239.105 117.04 244.385 116.84 247.185 116.52C250.065 116.12 251.705 115.92 252.105 115.92C252.505 115.92 252.705 116.76 252.705 118.44C252.705 120.28 252.505 121.2 252.105 121.2C251.785 121.2 250.185 121 247.305 120.6C244.425 120.12 239.105 119.8 231.345 119.64V136.8C231.345 139.12 231.585 140.88 232.065 142.08C232.545 143.2 233.425 144 234.705 144.48C236.065 144.88 238.105 145.08 240.825 145.08H246.585C249.785 145.08 252.665 143.8 255.225 141.24C257.785 138.6 259.505 135.2 260.385 131.04ZM331.769 145.56C331.929 145.56 332.009 145.8 332.009 146.28C332.009 146.76 331.929 147 331.769 147H317.729C316.289 147 313.729 144.6 310.049 139.8C306.449 135 302.089 128.36 296.969 119.88C295.449 120.2 293.729 120.36 291.809 120.36C289.809 120.36 288.289 120.28 287.249 120.12V137.28C287.249 139.76 287.449 141.56 287.849 142.68C288.249 143.8 289.049 144.56 290.249 144.96C291.449 145.36 293.409 145.56 296.129 145.56C296.289 145.56 296.369 145.8 296.369 146.28C296.369 146.76 296.289 147 296.129 147C293.889 147 292.169 146.96 290.969 146.88L283.409 146.76L276.329 146.88C274.969 146.96 273.129 147 270.809 147C270.649 147 270.569 146.76 270.569 146.28C270.569 145.8 270.649 145.56 270.809 145.56C273.449 145.56 275.369 145.36 276.569 144.96C277.849 144.56 278.729 143.8 279.209 142.68C279.689 141.48 279.929 139.68 279.929 137.28V100.56C279.929 98.16 279.689 96.4 279.209 95.28C278.809 94.16 277.969 93.4 276.689 93C275.489 92.52 273.569 92.28 270.929 92.28C270.769 92.28 270.689 92.04 270.689 91.56C270.689 91.08 270.769 90.84 270.929 90.84L276.449 90.96C279.329 91.12 281.649 91.2 283.409 91.2C284.849 91.2 286.169 91.16 287.369 91.08C288.649 91 289.729 90.92 290.609 90.84C293.089 90.6 295.449 90.48 297.689 90.48C302.889 90.48 306.849 91.48 309.569 93.48C312.289 95.48 313.649 98.36 313.649 102.12C313.649 105.32 312.729 108.28 310.889 111C309.049 113.72 306.569 115.92 303.449 117.6C307.929 124.96 311.689 130.64 314.729 134.64C317.849 138.56 320.689 141.36 323.249 143.04C325.889 144.72 328.729 145.56 331.769 145.56ZM287.249 117.96C288.689 118.2 290.489 118.32 292.649 118.32C297.609 118.32 301.049 117.24 302.969 115.08C304.969 112.84 305.969 109.6 305.969 105.36C305.969 96.56 302.169 92.16 294.569 92.16C291.529 92.16 289.529 92.8 288.569 94.08C287.689 95.36 287.249 97.6 287.249 100.8V117.96ZM380.034 131.04C380.034 130.8 380.234 130.68 380.634 130.68C381.114 130.68 381.354 130.8 381.354 131.04C380.794 136.8 380.514 141.52 380.514 145.2C380.514 145.84 380.394 146.32 380.154 146.64C379.914 146.88 379.434 147 378.714 147H334.794C334.634 147 334.554 146.76 334.554 146.28C334.554 145.8 334.634 145.56 334.794 145.56C337.434 145.56 339.354 145.36 340.554 144.96C341.754 144.56 342.554 143.8 342.954 142.68C343.434 141.48 343.674 139.68 343.674 137.28V100.56C343.674 98.16 343.434 96.4 342.954 95.28C342.554 94.16 341.754 93.4 340.554 93C339.354 92.52 337.434 92.28 334.794 92.28C334.634 92.28 334.554 92.04 334.554 91.56C334.554 91.08 334.634 90.84 334.794 90.84H376.554C377.354 90.84 377.754 91.16 377.754 91.8L377.874 99.24C377.954 100.76 377.994 102.68 377.994 105C377.994 105.24 377.754 105.36 377.274 105.36C376.794 105.36 376.554 105.24 376.554 105C376.234 101.32 374.874 98.32 372.474 96C370.154 93.6 367.274 92.4 363.834 92.4H360.474C357.674 92.4 355.634 92.64 354.354 93.12C353.074 93.52 352.194 94.28 351.714 95.4C351.234 96.52 350.994 98.28 350.994 100.68V117.12C358.754 117.04 364.034 116.84 366.834 116.52C369.714 116.12 371.354 115.92 371.754 115.92C372.154 115.92 372.354 116.76 372.354 118.44C372.354 120.28 372.154 121.2 371.754 121.2C371.434 121.2 369.834 121 366.954 120.6C364.074 120.12 358.754 119.8 350.994 119.64V136.8C350.994 139.12 351.234 140.88 351.714 142.08C352.194 143.2 353.074 144 354.354 144.48C355.714 144.88 357.754 145.08 360.474 145.08H366.234C369.434 145.08 372.314 143.8 374.874 141.24C377.434 138.6 379.154 135.2 380.034 131.04ZM451.058 90.84C451.298 90.84 451.418 91.08 451.418 91.56C451.418 92.04 451.298 92.28 451.058 92.28C448.098 92.28 445.978 93.16 444.698 94.92C443.418 96.68 442.778 99.68 442.778 103.92V148.32C442.778 148.48 442.578 148.6 442.178 148.68C441.778 148.76 441.498 148.72 441.338 148.56L401.978 100.68C401.578 100.28 401.058 99.68 400.418 98.88V133.92C400.418 138.16 401.018 141.16 402.218 142.92C403.418 144.68 405.498 145.56 408.458 145.56C408.618 145.56 408.698 145.8 408.698 146.28C408.698 146.76 408.618 147 408.458 147C406.698 147 405.338 146.96 404.378 146.88L399.338 146.76L394.178 146.88C393.138 146.96 391.698 147 389.858 147C389.698 147 389.618 146.76 389.618 146.28C389.618 145.8 389.698 145.56 389.858 145.56C392.818 145.56 394.898 144.68 396.098 142.92C397.378 141.16 398.018 138.16 398.018 133.92V96.48C396.418 94.96 394.978 93.88 393.698 93.24C392.418 92.6 391.138 92.28 389.858 92.28C389.698 92.28 389.618 92.04 389.618 91.56C389.618 91.08 389.698 90.84 389.858 90.84L396.578 90.96L402.938 90.84C403.498 90.84 403.938 91 404.258 91.32C404.658 91.64 405.218 92.32 405.938 93.36C406.578 94.4 407.458 95.64 408.578 97.08L440.378 136.32V103.92C440.378 99.68 439.778 96.68 438.578 94.92C437.458 93.16 435.418 92.28 432.458 92.28C432.218 92.28 432.098 92.04 432.098 91.56C432.098 91.08 432.218 90.84 432.458 90.84L436.538 90.96C438.618 91.12 440.298 91.2 441.578 91.2C442.858 91.2 444.618 91.12 446.858 90.96L451.058 90.84ZM492.015 89.4C495.055 89.4 498.295 89.72 501.735 90.36C505.255 91 508.095 91.84 510.255 92.88C510.815 93.12 511.175 93.36 511.335 93.6C511.495 93.84 511.615 94.28 511.695 94.92L512.895 107.28C512.895 107.52 512.655 107.68 512.175 107.76C511.775 107.84 511.535 107.72 511.455 107.4C510.015 101.88 507.375 97.8 503.535 95.16C499.775 92.52 495.095 91.2 489.495 91.2C485.335 91.2 481.575 92.32 478.215 94.56C474.935 96.8 472.335 99.88 470.415 103.8C468.575 107.64 467.655 112 467.655 116.88C467.655 121.84 468.575 126.64 470.415 131.28C472.335 135.84 475.175 139.56 478.935 142.44C482.775 145.32 487.375 146.76 492.735 146.76C502.815 146.76 509.415 141.24 512.535 130.2C512.535 129.96 512.735 129.84 513.135 129.84C513.295 129.84 513.455 129.92 513.615 130.08C513.855 130.16 513.975 130.24 513.975 130.32L512.415 143.04C512.335 143.68 512.215 144.12 512.055 144.36C511.895 144.6 511.455 144.88 510.735 145.2C504.575 147.36 498.175 148.44 491.535 148.44C483.935 148.44 477.695 146.92 472.815 143.88C467.935 140.84 464.415 137.04 462.255 132.48C460.095 127.92 459.015 123.32 459.015 118.68C459.015 113.24 460.455 108.28 463.335 103.8C466.215 99.32 470.175 95.8 475.215 93.24C480.255 90.68 485.855 89.4 492.015 89.4ZM539.666 136.8C539.666 139.12 539.866 140.84 540.266 141.96C540.746 143.08 541.586 143.88 542.786 144.36C544.066 144.84 545.946 145.08 548.426 145.08H556.346C560.586 145.08 563.946 143.76 566.426 141.12C568.986 138.48 570.706 134.84 571.586 130.2C571.586 130.04 571.746 129.96 572.066 129.96C572.306 129.96 572.506 130 572.666 130.08C572.906 130.16 573.026 130.28 573.026 130.44C572.466 134.12 572.186 139.04 572.186 145.2C572.186 145.84 572.026 146.32 571.706 146.64C571.466 146.88 571.026 147 570.386 147H523.466C523.306 147 523.226 146.76 523.226 146.28C523.226 145.8 523.306 145.56 523.466 145.56C526.106 145.56 528.026 145.36 529.226 144.96C530.426 144.56 531.226 143.8 531.626 142.68C532.026 141.48 532.226 139.68 532.226 137.28V100.56C532.226 98.16 531.986 96.4 531.506 95.28C531.106 94.16 530.306 93.4 529.106 93C527.906 92.52 526.026 92.28 523.466 92.28C523.306 92.28 523.226 92.04 523.226 91.56C523.226 91.08 523.306 90.84 523.466 90.84L528.866 90.96C531.906 91.12 534.266 91.2 535.946 91.2C537.946 91.2 540.466 91.12 543.506 90.96L548.546 90.84C548.786 90.84 548.906 91.08 548.906 91.56C548.906 92.04 548.786 92.28 548.546 92.28C545.906 92.28 543.986 92.52 542.786 93C541.586 93.4 540.746 94.2 540.266 95.4C539.866 96.52 539.666 98.28 539.666 100.68V136.8ZM607.813 148.44C602.213 148.44 597.213 147.12 592.813 144.48C588.493 141.84 585.133 138.28 582.732 133.8C580.333 129.32 579.133 124.48 579.133 119.28C579.133 113.04 580.733 107.68 583.933 103.2C587.213 98.64 591.333 95.2 596.293 92.88C601.333 90.56 606.453 89.4 611.653 89.4C617.253 89.4 622.173 90.8 626.413 93.6C630.733 96.32 634.013 99.88 636.253 104.28C638.573 108.68 639.733 113.28 639.733 118.08C639.733 123.44 638.293 128.48 635.412 133.2C632.533 137.84 628.653 141.56 623.773 144.36C618.893 147.08 613.573 148.44 607.813 148.44ZM610.933 145.92C617.173 145.92 622.133 143.72 625.813 139.32C629.573 134.92 631.453 128.84 631.453 121.08C631.453 115.72 630.493 110.84 628.573 106.44C626.733 102.04 624.013 98.52 620.413 95.88C616.813 93.24 612.533 91.92 607.573 91.92C601.173 91.92 596.213 94.08 592.693 98.4C589.173 102.64 587.413 108.6 587.413 116.28C587.413 121.8 588.333 126.8 590.173 131.28C592.093 135.76 594.813 139.32 598.333 141.96C601.933 144.6 606.133 145.92 610.933 145.92ZM662.07 92.4C659.03 92.4 656.63 92.84 654.87 93.72C653.11 94.52 651.71 95.92 650.67 97.92C649.71 99.92 648.95 102.76 648.39 106.44C648.39 106.6 648.15 106.68 647.67 106.68C647.27 106.68 647.07 106.6 647.07 106.44C647.31 104.6 647.59 101.64 647.91 97.56C648.23 93.48 648.39 90.36 648.39 88.2C648.39 87.8 648.63 87.6 649.11 87.6C649.59 87.6 649.83 87.8 649.83 88.2C649.83 89.24 650.43 89.92 651.63 90.24C652.83 90.48 654.31 90.6 656.07 90.6C663.11 90.76 669.15 90.84 674.19 90.84L684.63 90.72C686.07 90.64 687.95 90.6 690.27 90.6C693.15 90.6 695.27 90.44 696.63 90.12C697.99 89.72 698.87 88.92 699.27 87.72C699.43 87.48 699.71 87.36 700.11 87.36C700.51 87.36 700.71 87.48 700.71 87.72C700.23 96.36 699.99 102.6 699.99 106.44C699.99 106.6 699.75 106.68 699.27 106.68C698.87 106.68 698.67 106.6 698.67 106.44C698.59 102.84 698.15 100.04 697.35 98.04C696.63 96.04 695.39 94.6 693.63 93.72C691.87 92.84 689.43 92.4 686.31 92.4C682.87 92.4 680.59 92.96 679.47 94.08C678.35 95.12 677.79 97.28 677.79 100.56V137.28C677.79 139.76 678.03 141.56 678.51 142.68C678.99 143.8 679.91 144.56 681.27 144.96C682.63 145.36 684.87 145.56 687.99 145.56C688.23 145.56 688.35 145.8 688.35 146.28C688.35 146.76 688.23 147 687.99 147C685.51 147 683.59 146.96 682.23 146.88L673.83 146.76L665.79 146.88C664.35 146.96 662.35 147 659.79 147C659.63 147 659.55 146.76 659.55 146.28C659.55 145.8 659.63 145.56 659.79 145.56C662.83 145.56 665.07 145.36 666.51 144.96C667.95 144.56 668.91 143.8 669.39 142.68C669.95 141.48 670.23 139.68 670.23 137.28V100.32C670.23 98 670.03 96.32 669.63 95.28C669.31 94.16 668.59 93.4 667.47 93C666.35 92.6 664.55 92.4 662.07 92.4ZM774.042 145.56C774.282 145.56 774.402 145.8 774.402 146.28C774.402 146.76 774.282 147 774.042 147C771.802 147 770.002 146.96 768.642 146.88L761.442 146.76L754.122 146.88C752.842 146.96 751.082 147 748.842 147C748.602 147 748.482 146.76 748.482 146.28C748.482 145.8 748.602 145.56 748.842 145.56C751.482 145.56 753.402 145.36 754.602 144.96C755.802 144.56 756.602 143.8 757.002 142.68C757.482 141.48 757.722 139.68 757.722 137.28V119.76H724.122V137.28C724.122 139.76 724.322 141.56 724.722 142.68C725.202 143.8 726.042 144.56 727.242 144.96C728.442 145.36 730.402 145.56 733.122 145.56C733.282 145.56 733.362 145.8 733.362 146.28C733.362 146.76 733.282 147 733.122 147C730.882 147 729.122 146.96 727.842 146.88L720.402 146.76L713.322 146.88C711.962 146.96 710.122 147 707.802 147C707.642 147 707.562 146.76 707.562 146.28C707.562 145.8 707.642 145.56 707.802 145.56C710.442 145.56 712.362 145.36 713.562 144.96C714.842 144.56 715.722 143.8 716.202 142.68C716.682 141.48 716.922 139.68 716.922 137.28V100.56C716.922 98.16 716.682 96.4 716.202 95.28C715.802 94.16 714.962 93.4 713.682 93C712.482 92.52 710.562 92.28 707.922 92.28C707.762 92.28 707.682 92.04 707.682 91.56C707.682 91.08 707.762 90.84 707.922 90.84L713.322 90.96C716.362 91.12 718.722 91.2 720.402 91.2C722.402 91.2 724.922 91.12 727.962 90.96L733.122 90.84C733.282 90.84 733.362 91.08 733.362 91.56C733.362 92.04 733.282 92.28 733.122 92.28C730.562 92.28 728.642 92.52 727.362 93C726.082 93.48 725.202 94.32 724.722 95.52C724.322 96.64 724.122 98.4 724.122 100.8V117.6H757.722V100.8C757.722 98.4 757.482 96.64 757.002 95.52C756.602 94.32 755.762 93.48 754.482 93C753.282 92.52 751.402 92.28 748.842 92.28C748.602 92.28 748.482 92.04 748.482 91.56C748.482 91.08 748.602 90.84 748.842 90.84L754.122 90.96C757.002 91.12 759.442 91.2 761.442 91.2C763.202 91.2 765.602 91.12 768.642 90.96L774.042 90.84C774.282 90.84 774.402 91.08 774.402 91.56C774.402 92.04 774.282 92.28 774.042 92.28C771.402 92.28 769.442 92.52 768.162 93C766.962 93.4 766.122 94.16 765.642 95.28C765.162 96.4 764.922 98.16 764.922 100.56V137.28C764.922 139.68 765.162 141.48 765.642 142.68C766.122 143.8 766.962 144.56 768.162 144.96C769.442 145.36 771.402 145.56 774.042 145.56Z" fill="white"/>
<path d="M329.816 163.768C329.784 163.768 329.752 163.72 329.72 163.624C329.704 163.512 329.696 163.392 329.696 163.264C329.696 163.152 329.704 163.056 329.72 162.976C329.752 162.88 329.776 162.832 329.792 162.832H348.104C348.136 162.832 348.16 162.88 348.176 162.976C348.208 163.072 348.224 163.176 348.224 163.288C348.224 163.4 348.208 163.512 348.176 163.624C348.16 163.72 348.136 163.768 348.104 163.768H329.816ZM362.011 157.48C362.619 157.48 363.267 157.544 363.955 157.672C364.659 157.8 365.227 157.968 365.659 158.176C365.771 158.224 365.843 158.272 365.875 158.32C365.907 158.368 365.931 158.456 365.947 158.584L366.187 161.056C366.187 161.104 366.139 161.136 366.043 161.152C365.963 161.168 365.915 161.144 365.899 161.08C365.611 159.976 365.083 159.16 364.315 158.632C363.563 158.104 362.627 157.84 361.507 157.84C360.675 157.84 359.923 158.064 359.251 158.512C358.595 158.96 358.075 159.576 357.691 160.36C357.323 161.128 357.139 162 357.139 162.976C357.139 163.968 357.323 164.928 357.691 165.856C358.075 166.768 358.643 167.512 359.395 168.088C360.163 168.664 361.083 168.952 362.155 168.952C364.171 168.952 365.491 167.848 366.115 165.64C366.115 165.592 366.155 165.568 366.235 165.568C366.267 165.568 366.299 165.584 366.331 165.616C366.379 165.632 366.403 165.648 366.403 165.664L366.091 168.208C366.075 168.336 366.051 168.424 366.019 168.472C365.987 168.52 365.899 168.576 365.755 168.64C364.523 169.072 363.243 169.288 361.915 169.288C360.395 169.288 359.147 168.984 358.171 168.376C357.195 167.768 356.491 167.008 356.059 166.096C355.627 165.184 355.411 164.264 355.411 163.336C355.411 162.248 355.699 161.256 356.275 160.36C356.851 159.464 357.643 158.76 358.651 158.248C359.659 157.736 360.779 157.48 362.011 157.48ZM371.541 166.96C371.541 167.424 371.581 167.768 371.661 167.992C371.757 168.216 371.925 168.376 372.165 168.472C372.421 168.568 372.797 168.616 373.293 168.616H374.877C375.725 168.616 376.397 168.352 376.893 167.824C377.405 167.296 377.749 166.568 377.925 165.64C377.925 165.608 377.957 165.592 378.021 165.592C378.069 165.592 378.109 165.6 378.141 165.616C378.189 165.632 378.213 165.656 378.213 165.688C378.101 166.424 378.045 167.408 378.045 168.64C378.045 168.768 378.013 168.864 377.949 168.928C377.901 168.976 377.813 169 377.685 169H368.301C368.269 169 368.253 168.952 368.253 168.856C368.253 168.76 368.269 168.712 368.301 168.712C368.829 168.712 369.213 168.672 369.453 168.592C369.693 168.512 369.853 168.36 369.933 168.136C370.013 167.896 370.053 167.536 370.053 167.056V159.712C370.053 159.232 370.005 158.88 369.909 158.656C369.829 158.432 369.669 158.28 369.429 158.2C369.189 158.104 368.813 158.056 368.301 158.056C368.269 158.056 368.253 158.008 368.253 157.912C368.253 157.816 368.269 157.768 368.301 157.768L369.381 157.792C369.989 157.824 370.461 157.84 370.797 157.84C371.197 157.84 371.701 157.824 372.309 157.792L373.317 157.768C373.365 157.768 373.389 157.816 373.389 157.912C373.389 158.008 373.365 158.056 373.317 158.056C372.789 158.056 372.405 158.104 372.165 158.2C371.925 158.28 371.757 158.44 371.661 158.68C371.581 158.904 371.541 159.256 371.541 159.736V166.96ZM385.17 169.288C384.05 169.288 383.05 169.024 382.17 168.496C381.306 167.968 380.634 167.256 380.154 166.36C379.674 165.464 379.434 164.496 379.434 163.456C379.434 162.208 379.754 161.136 380.394 160.24C381.05 159.328 381.874 158.64 382.866 158.176C383.874 157.712 384.898 157.48 385.938 157.48C387.058 157.48 388.042 157.76 388.89 158.32C389.754 158.864 390.41 159.576 390.858 160.456C391.322 161.336 391.554 162.256 391.554 163.216C391.554 164.288 391.266 165.296 390.69 166.24C390.114 167.168 389.338 167.912 388.362 168.472C387.386 169.016 386.322 169.288 385.17 169.288ZM385.794 168.784C387.042 168.784 388.034 168.344 388.77 167.464C389.522 166.584 389.898 165.368 389.898 163.816C389.898 162.744 389.706 161.768 389.322 160.888C388.954 160.008 388.41 159.304 387.69 158.776C386.97 158.248 386.114 157.984 385.122 157.984C383.842 157.984 382.85 158.416 382.146 159.28C381.442 160.128 381.09 161.32 381.09 162.856C381.09 163.96 381.274 164.96 381.642 165.856C382.026 166.752 382.57 167.464 383.274 167.992C383.994 168.52 384.834 168.784 385.794 168.784ZM396.022 158.08C395.414 158.08 394.934 158.168 394.582 158.344C394.23 158.504 393.95 158.784 393.742 159.184C393.55 159.584 393.398 160.152 393.286 160.888C393.286 160.92 393.238 160.936 393.142 160.936C393.062 160.936 393.022 160.92 393.022 160.888C393.07 160.52 393.126 159.928 393.19 159.112C393.254 158.296 393.286 157.672 393.286 157.24C393.286 157.16 393.334 157.12 393.43 157.12C393.526 157.12 393.574 157.16 393.574 157.24C393.574 157.448 393.694 157.584 393.934 157.648C394.174 157.696 394.47 157.72 394.822 157.72C396.23 157.752 397.438 157.768 398.446 157.768L400.534 157.744C400.822 157.728 401.198 157.72 401.662 157.72C402.238 157.72 402.662 157.688 402.934 157.624C403.206 157.544 403.382 157.384 403.462 157.144C403.494 157.096 403.55 157.072 403.63 157.072C403.71 157.072 403.75 157.096 403.75 157.144C403.654 158.872 403.606 160.12 403.606 160.888C403.606 160.92 403.558 160.936 403.462 160.936C403.382 160.936 403.342 160.92 403.342 160.888C403.326 160.168 403.238 159.608 403.078 159.208C402.934 158.808 402.686 158.52 402.334 158.344C401.982 158.168 401.494 158.08 400.87 158.08C400.182 158.08 399.726 158.192 399.502 158.416C399.278 158.624 399.166 159.056 399.166 159.712V167.056C399.166 167.552 399.214 167.912 399.31 168.136C399.406 168.36 399.59 168.512 399.862 168.592C400.134 168.672 400.582 168.712 401.206 168.712C401.254 168.712 401.278 168.76 401.278 168.856C401.278 168.952 401.254 169 401.206 169C400.71 169 400.326 168.992 400.054 168.976L398.374 168.952L396.766 168.976C396.478 168.992 396.078 169 395.566 169C395.534 169 395.518 168.952 395.518 168.856C395.518 168.76 395.534 168.712 395.566 168.712C396.174 168.712 396.622 168.672 396.91 168.592C397.198 168.512 397.39 168.36 397.486 168.136C397.598 167.896 397.654 167.536 397.654 167.056V159.664C397.654 159.2 397.614 158.864 397.534 158.656C397.47 158.432 397.326 158.28 397.102 158.2C396.878 158.12 396.518 158.08 396.022 158.08ZM418.416 168.712C418.464 168.712 418.488 168.76 418.488 168.856C418.488 168.952 418.464 169 418.416 169C417.968 169 417.608 168.992 417.336 168.976L415.896 168.952L414.432 168.976C414.176 168.992 413.824 169 413.376 169C413.328 169 413.304 168.952 413.304 168.856C413.304 168.76 413.328 168.712 413.376 168.712C413.904 168.712 414.288 168.672 414.528 168.592C414.768 168.512 414.928 168.36 415.008 168.136C415.104 167.896 415.152 167.536 415.152 167.056V163.552H408.432V167.056C408.432 167.552 408.472 167.912 408.552 168.136C408.648 168.36 408.816 168.512 409.056 168.592C409.296 168.672 409.688 168.712 410.232 168.712C410.264 168.712 410.28 168.76 410.28 168.856C410.28 168.952 410.264 169 410.232 169C409.784 169 409.432 168.992 409.176 168.976L407.688 168.952L406.272 168.976C406 168.992 405.632 169 405.168 169C405.136 169 405.12 168.952 405.12 168.856C405.12 168.76 405.136 168.712 405.168 168.712C405.696 168.712 406.08 168.672 406.32 168.592C406.576 168.512 406.752 168.36 406.848 168.136C406.944 167.896 406.992 167.536 406.992 167.056V159.712C406.992 159.232 406.944 158.88 406.848 158.656C406.768 158.432 406.6 158.28 406.344 158.2C406.104 158.104 405.72 158.056 405.192 158.056C405.16 158.056 405.144 158.008 405.144 157.912C405.144 157.816 405.16 157.768 405.192 157.768L406.272 157.792C406.88 157.824 407.352 157.84 407.688 157.84C408.088 157.84 408.592 157.824 409.2 157.792L410.232 157.768C410.264 157.768 410.28 157.816 410.28 157.912C410.28 158.008 410.264 158.056 410.232 158.056C409.72 158.056 409.336 158.104 409.08 158.2C408.824 158.296 408.648 158.464 408.552 158.704C408.472 158.928 408.432 159.28 408.432 159.76V163.12H415.152V159.76C415.152 159.28 415.104 158.928 415.008 158.704C414.928 158.464 414.76 158.296 414.504 158.2C414.264 158.104 413.888 158.056 413.376 158.056C413.328 158.056 413.304 158.008 413.304 157.912C413.304 157.816 413.328 157.768 413.376 157.768L414.432 157.792C415.008 157.824 415.496 157.84 415.896 157.84C416.248 157.84 416.728 157.824 417.336 157.792L418.416 157.768C418.464 157.768 418.488 157.816 418.488 157.912C418.488 158.008 418.464 158.056 418.416 158.056C417.888 158.056 417.496 158.104 417.24 158.2C417 158.28 416.832 158.432 416.736 158.656C416.64 158.88 416.592 159.232 416.592 159.712V167.056C416.592 167.536 416.64 167.896 416.736 168.136C416.832 168.36 417 168.512 417.24 168.592C417.496 168.672 417.888 168.712 418.416 168.712ZM429.146 165.808C429.146 165.76 429.186 165.736 429.266 165.736C429.362 165.736 429.41 165.76 429.41 165.808C429.298 166.96 429.242 167.904 429.242 168.64C429.242 168.768 429.218 168.864 429.17 168.928C429.122 168.976 429.026 169 428.882 169H420.098C420.066 169 420.05 168.952 420.05 168.856C420.05 168.76 420.066 168.712 420.098 168.712C420.626 168.712 421.01 168.672 421.25 168.592C421.49 168.512 421.65 168.36 421.73 168.136C421.826 167.896 421.874 167.536 421.874 167.056V159.712C421.874 159.232 421.826 158.88 421.73 158.656C421.65 158.432 421.49 158.28 421.25 158.2C421.01 158.104 420.626 158.056 420.098 158.056C420.066 158.056 420.05 158.008 420.05 157.912C420.05 157.816 420.066 157.768 420.098 157.768H428.45C428.61 157.768 428.69 157.832 428.69 157.96L428.714 159.448C428.73 159.752 428.738 160.136 428.738 160.6C428.738 160.648 428.69 160.672 428.594 160.672C428.498 160.672 428.45 160.648 428.45 160.6C428.386 159.864 428.114 159.264 427.634 158.8C427.17 158.32 426.594 158.08 425.906 158.08H425.234C424.674 158.08 424.266 158.128 424.01 158.224C423.754 158.304 423.578 158.456 423.482 158.68C423.386 158.904 423.338 159.256 423.338 159.736V163.024C424.89 163.008 425.946 162.968 426.506 162.904C427.082 162.824 427.41 162.784 427.49 162.784C427.57 162.784 427.61 162.952 427.61 163.288C427.61 163.656 427.57 163.84 427.49 163.84C427.426 163.84 427.106 163.8 426.53 163.72C425.954 163.624 424.89 163.56 423.338 163.528V166.96C423.338 167.424 423.386 167.776 423.482 168.016C423.578 168.24 423.754 168.4 424.01 168.496C424.282 168.576 424.69 168.616 425.234 168.616H426.386C427.026 168.616 427.602 168.36 428.114 167.848C428.626 167.32 428.97 166.64 429.146 165.808ZM433.223 159.712C433.223 160.192 433.343 160.616 433.583 160.984C433.839 161.336 434.151 161.632 434.519 161.872C434.887 162.112 435.375 162.392 435.983 162.712C436.639 163.064 437.167 163.376 437.567 163.648C437.967 163.904 438.303 164.232 438.575 164.632C438.847 165.032 438.983 165.512 438.983 166.072C438.983 166.664 438.815 167.208 438.479 167.704C438.159 168.184 437.695 168.568 437.087 168.856C436.479 169.144 435.767 169.288 434.951 169.288C433.783 169.288 432.815 169.008 432.047 168.448C431.967 168.416 431.911 168.368 431.879 168.304C431.863 168.24 431.847 168.136 431.831 167.992L431.591 165.616C431.575 165.552 431.607 165.512 431.687 165.496C431.783 165.48 431.847 165.504 431.879 165.568C432.103 166.496 432.543 167.288 433.199 167.944C433.871 168.584 434.615 168.904 435.431 168.904C435.991 168.904 436.471 168.744 436.871 168.424C437.287 168.088 437.495 167.576 437.495 166.888C437.495 166.152 437.255 165.552 436.775 165.088C436.295 164.624 435.599 164.152 434.687 163.672C434.047 163.32 433.535 163.016 433.151 162.76C432.783 162.488 432.471 162.16 432.215 161.776C431.959 161.392 431.831 160.928 431.831 160.384C431.831 159.472 432.183 158.76 432.887 158.248C433.591 157.736 434.447 157.48 435.455 157.48C436.303 157.48 437.103 157.664 437.855 158.032C437.999 158.112 438.087 158.176 438.119 158.224C438.167 158.256 438.199 158.328 438.215 158.44L438.383 160.528C438.383 160.592 438.335 160.632 438.239 160.648C438.159 160.664 438.111 160.64 438.095 160.576C438.015 160.176 437.831 159.768 437.543 159.352C437.271 158.92 436.911 158.56 436.463 158.272C436.031 157.984 435.551 157.84 435.023 157.84C434.447 157.84 433.999 158.016 433.679 158.368C433.375 158.72 433.223 159.168 433.223 159.712ZM454.894 159.448C454.91 159.752 454.918 160.136 454.918 160.6C454.918 160.648 454.87 160.672 454.774 160.672C454.678 160.672 454.63 160.648 454.63 160.6C454.55 159.832 454.286 159.224 453.838 158.776C453.39 158.312 452.806 158.08 452.086 158.08H451.414C450.854 158.08 450.446 158.128 450.19 158.224C449.934 158.304 449.758 158.456 449.662 158.68C449.566 158.904 449.518 159.256 449.518 159.736V163.288C451.054 163.272 452.102 163.232 452.662 163.168C453.238 163.104 453.566 163.072 453.646 163.072C453.726 163.072 453.766 163.24 453.766 163.576C453.766 163.944 453.726 164.128 453.646 164.128C453.582 164.128 453.262 164.088 452.686 164.008C452.126 163.912 451.07 163.848 449.518 163.816V166.96C449.518 167.472 449.574 167.848 449.686 168.088C449.798 168.312 450.014 168.472 450.334 168.568C450.67 168.664 451.19 168.712 451.894 168.712C451.942 168.712 451.966 168.76 451.966 168.856C451.966 168.952 451.942 169 451.894 169C451.318 169 450.878 168.992 450.574 168.976L448.774 168.952L447.478 168.976C447.206 168.992 446.806 169 446.278 169C446.245 169 446.229 168.952 446.229 168.856C446.229 168.76 446.245 168.712 446.278 168.712C446.806 168.712 447.19 168.672 447.43 168.592C447.67 168.512 447.83 168.36 447.91 168.136C448.006 167.896 448.054 167.536 448.054 167.056V159.712C448.054 159.232 448.006 158.88 447.91 158.656C447.83 158.432 447.67 158.28 447.43 158.2C447.19 158.104 446.806 158.056 446.278 158.056C446.245 158.056 446.229 158.008 446.229 157.912C446.229 157.816 446.245 157.768 446.278 157.768H454.63C454.79 157.768 454.87 157.832 454.87 157.96L454.894 159.448ZM468.712 168.712C468.744 168.712 468.76 168.76 468.76 168.856C468.76 168.952 468.744 169 468.712 169H465.904C465.616 169 465.104 168.52 464.368 167.56C463.648 166.6 462.776 165.272 461.752 163.576C461.448 163.64 461.104 163.672 460.72 163.672C460.32 163.672 460.016 163.656 459.808 163.624V167.056C459.808 167.552 459.848 167.912 459.928 168.136C460.008 168.36 460.168 168.512 460.408 168.592C460.648 168.672 461.04 168.712 461.584 168.712C461.616 168.712 461.632 168.76 461.632 168.856C461.632 168.952 461.616 169 461.584 169C461.136 169 460.792 168.992 460.552 168.976L459.04 168.952L457.624 168.976C457.352 168.992 456.984 169 456.52 169C456.488 169 456.472 168.952 456.472 168.856C456.472 168.76 456.488 168.712 456.52 168.712C457.048 168.712 457.432 168.672 457.672 168.592C457.928 168.512 458.104 168.36 458.2 168.136C458.296 167.896 458.344 167.536 458.344 167.056V159.712C458.344 159.232 458.296 158.88 458.2 158.656C458.12 158.432 457.952 158.28 457.696 158.2C457.456 158.104 457.072 158.056 456.544 158.056C456.512 158.056 456.496 158.008 456.496 157.912C456.496 157.816 456.512 157.768 456.544 157.768L457.648 157.792C458.224 157.824 458.688 157.84 459.04 157.84C459.328 157.84 459.592 157.832 459.832 157.816C460.088 157.8 460.304 157.784 460.48 157.768C460.976 157.72 461.448 157.696 461.896 157.696C462.936 157.696 463.728 157.896 464.272 158.296C464.816 158.696 465.088 159.272 465.088 160.024C465.088 160.664 464.904 161.256 464.536 161.8C464.168 162.344 463.672 162.784 463.048 163.12C463.944 164.592 464.696 165.728 465.304 166.528C465.928 167.312 466.496 167.872 467.008 168.208C467.536 168.544 468.104 168.712 468.712 168.712ZM459.808 163.192C460.096 163.24 460.456 163.264 460.888 163.264C461.88 163.264 462.568 163.048 462.952 162.616C463.352 162.168 463.552 161.52 463.552 160.672C463.552 158.912 462.792 158.032 461.272 158.032C460.664 158.032 460.264 158.16 460.072 158.416C459.896 158.672 459.808 159.12 459.808 159.76V163.192ZM474.795 169.288C473.675 169.288 472.675 169.024 471.795 168.496C470.931 167.968 470.259 167.256 469.779 166.36C469.299 165.464 469.059 164.496 469.059 163.456C469.059 162.208 469.379 161.136 470.019 160.24C470.675 159.328 471.499 158.64 472.491 158.176C473.499 157.712 474.523 157.48 475.563 157.48C476.683 157.48 477.667 157.76 478.515 158.32C479.379 158.864 480.035 159.576 480.483 160.456C480.947 161.336 481.179 162.256 481.179 163.216C481.179 164.288 480.891 165.296 480.315 166.24C479.739 167.168 478.963 167.912 477.987 168.472C477.011 169.016 475.947 169.288 474.795 169.288ZM475.419 168.784C476.667 168.784 477.659 168.344 478.395 167.464C479.147 166.584 479.523 165.368 479.523 163.816C479.523 162.744 479.331 161.768 478.947 160.888C478.579 160.008 478.035 159.304 477.315 158.776C476.595 158.248 475.739 157.984 474.747 157.984C473.467 157.984 472.475 158.416 471.771 159.28C471.067 160.128 470.715 161.32 470.715 162.856C470.715 163.96 470.899 164.96 471.267 165.856C471.651 166.752 472.195 167.464 472.899 167.992C473.619 168.52 474.459 168.784 475.419 168.784ZM497.863 168.712C497.895 168.712 497.911 168.76 497.911 168.856C497.911 168.952 497.895 169 497.863 169C497.415 169 497.063 168.992 496.807 168.976L495.391 168.952L493.759 168.976C493.487 168.992 493.111 169 492.631 169C492.599 169 492.583 168.952 492.583 168.856C492.583 168.76 492.599 168.712 492.631 168.712C493.223 168.712 493.663 168.672 493.951 168.592C494.239 168.496 494.431 168.336 494.527 168.112C494.623 167.888 494.655 167.536 494.623 167.056L494.335 158.968L490.207 168.832C490.175 168.896 490.119 168.928 490.039 168.928C489.943 168.928 489.879 168.896 489.847 168.832L485.263 159.76L485.215 159.664L484.999 166.384C484.983 167.232 485.095 167.832 485.335 168.184C485.575 168.536 485.983 168.712 486.559 168.712C486.607 168.712 486.631 168.76 486.631 168.856C486.631 168.952 486.607 169 486.559 169C486.223 169 485.967 168.992 485.791 168.976L484.735 168.952L483.727 168.976C483.519 168.992 483.231 169 482.863 169C482.831 169 482.815 168.952 482.815 168.856C482.815 168.76 482.831 168.712 482.863 168.712C483.455 168.712 483.871 168.536 484.111 168.184C484.351 167.832 484.487 167.232 484.519 166.384L484.759 158.944C484.295 158.352 483.727 158.056 483.055 158.056C483.007 158.056 482.983 158.008 482.983 157.912C482.983 157.816 483.007 157.768 483.055 157.768L484.375 157.792L485.527 157.768C485.735 157.768 485.903 157.84 486.031 157.984C486.159 158.128 486.359 158.472 486.631 159.016L490.567 166.84L494.119 158.368C494.183 158.192 494.279 158.048 494.407 157.936C494.551 157.824 494.695 157.768 494.839 157.768L496.111 157.792L497.719 157.768C497.751 157.768 497.767 157.816 497.767 157.912C497.767 158.008 497.751 158.056 497.719 158.056C496.999 158.056 496.495 158.168 496.207 158.392C495.919 158.6 495.791 159.024 495.823 159.664L496.111 167.056C496.143 167.552 496.199 167.912 496.279 168.136C496.359 168.36 496.511 168.512 496.735 168.592C496.975 168.672 497.351 168.712 497.863 168.712ZM507.027 159.712C507.027 160.192 507.147 160.616 507.387 160.984C507.643 161.336 507.955 161.632 508.323 161.872C508.691 162.112 509.179 162.392 509.787 162.712C510.443 163.064 510.971 163.376 511.371 163.648C511.771 163.904 512.107 164.232 512.379 164.632C512.651 165.032 512.787 165.512 512.787 166.072C512.787 166.664 512.619 167.208 512.283 167.704C511.963 168.184 511.499 168.568 510.891 168.856C510.283 169.144 509.571 169.288 508.755 169.288C507.587 169.288 506.619 169.008 505.851 168.448C505.771 168.416 505.715 168.368 505.683 168.304C505.667 168.24 505.651 168.136 505.635 167.992L505.395 165.616C505.379 165.552 505.411 165.512 505.491 165.496C505.587 165.48 505.651 165.504 505.683 165.568C505.907 166.496 506.347 167.288 507.003 167.944C507.675 168.584 508.419 168.904 509.235 168.904C509.795 168.904 510.275 168.744 510.675 168.424C511.091 168.088 511.299 167.576 511.299 166.888C511.299 166.152 511.059 165.552 510.579 165.088C510.099 164.624 509.403 164.152 508.491 163.672C507.851 163.32 507.339 163.016 506.955 162.76C506.587 162.488 506.275 162.16 506.019 161.776C505.763 161.392 505.635 160.928 505.635 160.384C505.635 159.472 505.987 158.76 506.691 158.248C507.395 157.736 508.251 157.48 509.259 157.48C510.107 157.48 510.907 157.664 511.659 158.032C511.803 158.112 511.891 158.176 511.923 158.224C511.971 158.256 512.003 158.328 512.019 158.44L512.187 160.528C512.187 160.592 512.139 160.632 512.043 160.648C511.963 160.664 511.915 160.64 511.899 160.576C511.819 160.176 511.635 159.768 511.347 159.352C511.075 158.92 510.715 158.56 510.267 158.272C509.835 157.984 509.355 157.84 508.827 157.84C508.251 157.84 507.803 158.016 507.483 158.368C507.179 158.72 507.027 159.168 507.027 159.712ZM523.505 165.808C523.505 165.76 523.545 165.736 523.625 165.736C523.721 165.736 523.769 165.76 523.769 165.808C523.657 166.96 523.601 167.904 523.601 168.64C523.601 168.768 523.577 168.864 523.529 168.928C523.481 168.976 523.385 169 523.241 169H514.457C514.425 169 514.409 168.952 514.409 168.856C514.409 168.76 514.425 168.712 514.457 168.712C514.985 168.712 515.369 168.672 515.609 168.592C515.849 168.512 516.009 168.36 516.089 168.136C516.185 167.896 516.233 167.536 516.233 167.056V159.712C516.233 159.232 516.185 158.88 516.089 158.656C516.009 158.432 515.849 158.28 515.609 158.2C515.369 158.104 514.985 158.056 514.457 158.056C514.425 158.056 514.409 158.008 514.409 157.912C514.409 157.816 514.425 157.768 514.457 157.768H522.809C522.969 157.768 523.049 157.832 523.049 157.96L523.073 159.448C523.089 159.752 523.097 160.136 523.097 160.6C523.097 160.648 523.049 160.672 522.953 160.672C522.857 160.672 522.809 160.648 522.809 160.6C522.745 159.864 522.473 159.264 521.993 158.8C521.529 158.32 520.953 158.08 520.265 158.08H519.593C519.033 158.08 518.625 158.128 518.369 158.224C518.113 158.304 517.937 158.456 517.841 158.68C517.745 158.904 517.697 159.256 517.697 159.736V163.024C519.249 163.008 520.305 162.968 520.865 162.904C521.441 162.824 521.769 162.784 521.849 162.784C521.929 162.784 521.969 162.952 521.969 163.288C521.969 163.656 521.929 163.84 521.849 163.84C521.785 163.84 521.465 163.8 520.889 163.72C520.313 163.624 519.249 163.56 517.697 163.528V166.96C517.697 167.424 517.745 167.776 517.841 168.016C517.937 168.24 518.113 168.4 518.369 168.496C518.641 168.576 519.049 168.616 519.593 168.616H520.745C521.385 168.616 521.961 168.36 522.473 167.848C522.985 167.32 523.329 166.64 523.505 165.808ZM537.782 168.712C537.814 168.712 537.83 168.76 537.83 168.856C537.83 168.952 537.814 169 537.782 169H534.974C534.686 169 534.174 168.52 533.438 167.56C532.718 166.6 531.846 165.272 530.822 163.576C530.518 163.64 530.174 163.672 529.79 163.672C529.39 163.672 529.086 163.656 528.878 163.624V167.056C528.878 167.552 528.918 167.912 528.998 168.136C529.078 168.36 529.238 168.512 529.478 168.592C529.718 168.672 530.11 168.712 530.654 168.712C530.686 168.712 530.702 168.76 530.702 168.856C530.702 168.952 530.686 169 530.654 169C530.206 169 529.862 168.992 529.622 168.976L528.11 168.952L526.694 168.976C526.422 168.992 526.054 169 525.59 169C525.558 169 525.542 168.952 525.542 168.856C525.542 168.76 525.558 168.712 525.59 168.712C526.118 168.712 526.502 168.672 526.742 168.592C526.998 168.512 527.174 168.36 527.27 168.136C527.366 167.896 527.414 167.536 527.414 167.056V159.712C527.414 159.232 527.366 158.88 527.27 158.656C527.19 158.432 527.022 158.28 526.766 158.2C526.526 158.104 526.142 158.056 525.614 158.056C525.582 158.056 525.566 158.008 525.566 157.912C525.566 157.816 525.582 157.768 525.614 157.768L526.718 157.792C527.294 157.824 527.758 157.84 528.11 157.84C528.398 157.84 528.662 157.832 528.902 157.816C529.158 157.8 529.374 157.784 529.55 157.768C530.046 157.72 530.518 157.696 530.966 157.696C532.006 157.696 532.798 157.896 533.342 158.296C533.886 158.696 534.158 159.272 534.158 160.024C534.158 160.664 533.974 161.256 533.606 161.8C533.238 162.344 532.742 162.784 532.118 163.12C533.014 164.592 533.766 165.728 534.374 166.528C534.998 167.312 535.566 167.872 536.078 168.208C536.606 168.544 537.174 168.712 537.782 168.712ZM528.878 163.192C529.166 163.24 529.526 163.264 529.958 163.264C530.95 163.264 531.638 163.048 532.022 162.616C532.422 162.168 532.622 161.52 532.622 160.672C532.622 158.912 531.862 158.032 530.342 158.032C529.734 158.032 529.334 158.16 529.142 158.416C528.966 158.672 528.878 159.12 528.878 159.76V163.192ZM547.435 165.808C547.435 165.76 547.475 165.736 547.555 165.736C547.651 165.736 547.699 165.76 547.699 165.808C547.587 166.96 547.531 167.904 547.531 168.64C547.531 168.768 547.507 168.864 547.459 168.928C547.411 168.976 547.315 169 547.171 169H538.387C538.355 169 538.339 168.952 538.339 168.856C538.339 168.76 538.355 168.712 538.387 168.712C538.915 168.712 539.299 168.672 539.539 168.592C539.779 168.512 539.939 168.36 540.019 168.136C540.115 167.896 540.163 167.536 540.163 167.056V159.712C540.163 159.232 540.115 158.88 540.019 158.656C539.939 158.432 539.779 158.28 539.539 158.2C539.299 158.104 538.915 158.056 538.387 158.056C538.355 158.056 538.339 158.008 538.339 157.912C538.339 157.816 538.355 157.768 538.387 157.768H546.739C546.899 157.768 546.979 157.832 546.979 157.96L547.003 159.448C547.019 159.752 547.027 160.136 547.027 160.6C547.027 160.648 546.979 160.672 546.883 160.672C546.787 160.672 546.739 160.648 546.739 160.6C546.675 159.864 546.403 159.264 545.923 158.8C545.459 158.32 544.883 158.08 544.195 158.08H543.523C542.963 158.08 542.555 158.128 542.299 158.224C542.043 158.304 541.867 158.456 541.771 158.68C541.675 158.904 541.627 159.256 541.627 159.736V163.024C543.179 163.008 544.235 162.968 544.795 162.904C545.371 162.824 545.699 162.784 545.779 162.784C545.859 162.784 545.899 162.952 545.899 163.288C545.899 163.656 545.859 163.84 545.779 163.84C545.715 163.84 545.395 163.8 544.819 163.72C544.243 163.624 543.179 163.56 541.627 163.528V166.96C541.627 167.424 541.675 167.776 541.771 168.016C541.867 168.24 542.043 168.4 542.299 168.496C542.571 168.576 542.979 168.616 543.523 168.616H544.675C545.315 168.616 545.891 168.36 546.403 167.848C546.915 167.32 547.259 166.64 547.435 165.808ZM561.64 157.768C561.688 157.768 561.712 157.816 561.712 157.912C561.712 158.008 561.688 158.056 561.64 158.056C561.048 158.056 560.624 158.232 560.368 158.584C560.112 158.936 559.984 159.536 559.984 160.384V169.264C559.984 169.296 559.944 169.32 559.864 169.336C559.784 169.352 559.728 169.344 559.696 169.312L551.824 159.736C551.744 159.656 551.64 159.536 551.512 159.376V166.384C551.512 167.232 551.632 167.832 551.872 168.184C552.112 168.536 552.528 168.712 553.12 168.712C553.152 168.712 553.168 168.76 553.168 168.856C553.168 168.952 553.152 169 553.12 169C552.768 169 552.496 168.992 552.304 168.976L551.296 168.952L550.264 168.976C550.056 168.992 549.768 169 549.4 169C549.368 169 549.352 168.952 549.352 168.856C549.352 168.76 549.368 168.712 549.4 168.712C549.992 168.712 550.408 168.536 550.648 168.184C550.904 167.832 551.032 167.232 551.032 166.384V158.896C550.712 158.592 550.424 158.376 550.168 158.248C549.912 158.12 549.656 158.056 549.4 158.056C549.368 158.056 549.352 158.008 549.352 157.912C549.352 157.816 549.368 157.768 549.4 157.768L550.744 157.792L552.016 157.768C552.128 157.768 552.216 157.8 552.28 157.864C552.36 157.928 552.472 158.064 552.616 158.272C552.744 158.48 552.92 158.728 553.144 159.016L559.504 166.864V160.384C559.504 159.536 559.384 158.936 559.144 158.584C558.92 158.232 558.512 158.056 557.92 158.056C557.872 158.056 557.848 158.008 557.848 157.912C557.848 157.816 557.872 157.768 557.92 157.768L558.736 157.792C559.152 157.824 559.488 157.84 559.744 157.84C560 157.84 560.352 157.824 560.8 157.792L561.64 157.768ZM566.639 167.056C566.639 167.552 566.679 167.912 566.759 168.136C566.855 168.36 567.023 168.512 567.263 168.592C567.503 168.672 567.895 168.712 568.439 168.712C568.471 168.712 568.487 168.76 568.487 168.856C568.487 168.952 568.471 169 568.439 169C567.991 169 567.639 168.992 567.383 168.976L565.871 168.952L564.455 168.976C564.183 168.992 563.815 169 563.351 169C563.319 169 563.303 168.952 563.303 168.856C563.303 168.76 563.319 168.712 563.351 168.712C563.895 168.712 564.287 168.672 564.527 168.592C564.767 168.512 564.927 168.36 565.007 168.136C565.103 167.912 565.151 167.552 565.151 167.056V159.712C565.151 159.232 565.103 158.88 565.007 158.656C564.927 158.432 564.759 158.28 564.503 158.2C564.263 158.104 563.879 158.056 563.351 158.056C563.319 158.056 563.303 158.008 563.303 157.912C563.303 157.816 563.319 157.768 563.351 157.768L564.455 157.792C565.031 157.824 565.503 157.84 565.871 157.84C566.287 157.84 566.799 157.824 567.407 157.792L568.439 157.768C568.471 157.768 568.487 157.816 568.487 157.912C568.487 158.008 568.471 158.056 568.439 158.056C567.927 158.056 567.543 158.104 567.287 158.2C567.031 158.296 566.855 158.464 566.759 158.704C566.679 158.928 566.639 159.28 566.639 159.76V167.056ZM582.214 168.712C582.262 168.712 582.286 168.76 582.286 168.856C582.286 168.952 582.262 169 582.214 169H579.694C579.182 169 578.886 168.976 578.806 168.928C578.726 168.88 578.478 168.536 578.062 167.896C577.662 167.24 577.094 166.448 576.358 165.52L574.486 163.12L573.502 164.08V167.056C573.502 167.552 573.542 167.912 573.622 168.136C573.718 168.36 573.886 168.512 574.126 168.592C574.366 168.672 574.758 168.712 575.302 168.712C575.334 168.712 575.35 168.76 575.35 168.856C575.35 168.952 575.334 169 575.302 169C574.854 169 574.502 168.992 574.246 168.976L572.758 168.952L571.342 168.976C571.07 168.992 570.702 169 570.238 169C570.206 169 570.19 168.952 570.19 168.856C570.19 168.76 570.206 168.712 570.238 168.712C570.766 168.712 571.15 168.672 571.39 168.592C571.646 168.512 571.822 168.36 571.918 168.136C572.014 167.896 572.062 167.536 572.062 167.056V159.712C572.062 159.232 572.014 158.88 571.918 158.656C571.838 158.432 571.67 158.28 571.414 158.2C571.174 158.104 570.79 158.056 570.262 158.056C570.23 158.056 570.214 158.008 570.214 157.912C570.214 157.816 570.23 157.768 570.262 157.768L571.342 157.792C571.95 157.824 572.422 157.84 572.758 157.84C573.158 157.84 573.662 157.824 574.27 157.792L575.302 157.768C575.334 157.768 575.35 157.816 575.35 157.912C575.35 158.008 575.334 158.056 575.302 158.056C574.79 158.056 574.406 158.104 574.15 158.2C573.894 158.296 573.718 158.464 573.622 158.704C573.542 158.928 573.502 159.28 573.502 159.76V163.504L577.318 159.664C577.958 159.056 578.278 158.64 578.278 158.416C578.278 158.288 578.19 158.2 578.014 158.152C577.838 158.088 577.55 158.056 577.15 158.056C577.102 158.056 577.078 158.008 577.078 157.912C577.078 157.816 577.102 157.768 577.15 157.768L578.038 157.792C578.55 157.824 579.078 157.84 579.622 157.84C580.262 157.84 580.822 157.824 581.302 157.792C581.446 157.776 581.614 157.768 581.806 157.768C581.854 157.768 581.878 157.816 581.878 157.912C581.878 158.008 581.854 158.056 581.806 158.056C581.262 158.056 580.614 158.208 579.862 158.512C579.126 158.8 578.446 159.248 577.822 159.856L575.518 162.136L577.174 164.248C578.358 165.768 579.182 166.8 579.646 167.344C580.11 167.888 580.51 168.256 580.846 168.448C581.198 168.624 581.654 168.712 582.214 168.712ZM585.191 159.712C585.191 160.192 585.311 160.616 585.551 160.984C585.807 161.336 586.119 161.632 586.487 161.872C586.855 162.112 587.343 162.392 587.951 162.712C588.607 163.064 589.135 163.376 589.535 163.648C589.935 163.904 590.271 164.232 590.543 164.632C590.815 165.032 590.951 165.512 590.951 166.072C590.951 166.664 590.783 167.208 590.447 167.704C590.127 168.184 589.663 168.568 589.055 168.856C588.447 169.144 587.735 169.288 586.919 169.288C585.751 169.288 584.783 169.008 584.015 168.448C583.935 168.416 583.879 168.368 583.847 168.304C583.831 168.24 583.815 168.136 583.799 167.992L583.559 165.616C583.543 165.552 583.575 165.512 583.655 165.496C583.751 165.48 583.815 165.504 583.847 165.568C584.071 166.496 584.511 167.288 585.167 167.944C585.839 168.584 586.583 168.904 587.399 168.904C587.959 168.904 588.439 168.744 588.839 168.424C589.255 168.088 589.463 167.576 589.463 166.888C589.463 166.152 589.223 165.552 588.743 165.088C588.263 164.624 587.567 164.152 586.655 163.672C586.015 163.32 585.503 163.016 585.119 162.76C584.751 162.488 584.439 162.16 584.183 161.776C583.927 161.392 583.799 160.928 583.799 160.384C583.799 159.472 584.151 158.76 584.855 158.248C585.559 157.736 586.415 157.48 587.423 157.48C588.271 157.48 589.071 157.664 589.823 158.032C589.967 158.112 590.055 158.176 590.087 158.224C590.135 158.256 590.167 158.328 590.183 158.44L590.351 160.528C590.351 160.592 590.303 160.632 590.207 160.648C590.127 160.664 590.079 160.64 590.063 160.576C589.983 160.176 589.799 159.768 589.511 159.352C589.239 158.92 588.879 158.56 588.431 158.272C587.999 157.984 587.519 157.84 586.991 157.84C586.415 157.84 585.967 158.016 585.647 158.368C585.343 158.72 585.191 159.168 585.191 159.712Z" fill="white"/>
<defs>
<filter id="filter0_f_201_436" x="0" y="0" width="969" height="242" filterUnits="userSpaceOnUse" color-interpolation-filters="sRGB">
<feFlood flood-opacity="0" result="BackgroundImageFix"/>
<feBlend mode="normal" in="SourceGraphic" in2="BackgroundImageFix" result="shape"/>
<feGaussianBlur stdDeviation="48.5" result="effect1_foregroundBlur_201_436"/>
</filter>
</defs>
</svg>
